<svg xmlns="http://www.w3.org/2000/svg" xmlns:xlink="http://www.w3.org/1999/xlink" width="1080" zoomAndPan="magnify" viewBox="0 0 810 1439.999935" height="1920" preserveAspectRatio="xMidYMid meet" version="1.0"><defs><clipPath id="3cdde37c35"><path d="M 687 925 L 698 925 L 698 985.753906 L 687 985.753906 Z M 687 925 " clip-rule="nonzero"/></clipPath><clipPath id="16e32724e4"><path d="M 644 945 L 689 945 L 689 985.753906 L 644 985.753906 Z M 644 945 " clip-rule="nonzero"/></clipPath><clipPath id="3b2fcd9348"><path d="M 269 454.003906 L 288 454.003906 L 288 473 L 269 473 Z M 269 454.003906 " clip-rule="nonzero"/></clipPath><clipPath id="3b27a087e3"><path d="M 479 983 L 729 983 L 729 985.753906 L 479 985.753906 Z M 479 983 " clip-rule="nonzero"/></clipPath></defs><g clip-path="url(#3cdde37c35)"><path fill="#f1f1f1" d="M 687.144531 985.753906 L 687.144531 925.859375 C 687.144531 925.859375 710.5 968.324219 687.144531 985.753906 Z M 687.144531 985.753906 " fill-opacity="1" fill-rule="nonzero"/></g><g clip-path="url(#16e32724e4)"><path fill="#f1f1f1" d="M 688.589844 985.746094 L 644.445312 945.238281 C 644.445312 945.238281 691.535156 956.761719 688.589844 985.746094 Z M 688.589844 985.746094 " fill-opacity="1" fill-rule="nonzero"/></g><g clip-path="url(#3b2fcd9348)"><path fill="#f1f1f1" d="M 287.875 463.128906 C 287.875 463.726562 287.816406 464.320312 287.699219 464.90625 C 287.582031 465.496094 287.410156 466.066406 287.179688 466.617188 C 286.949219 467.171875 286.667969 467.695312 286.335938 468.195312 C 286.003906 468.691406 285.625 469.152344 285.199219 469.578125 C 284.777344 470 284.316406 470.378906 283.816406 470.710938 C 283.320312 471.042969 282.792969 471.324219 282.238281 471.554688 C 281.6875 471.785156 281.117188 471.957031 280.527344 472.074219 C 279.941406 472.191406 279.347656 472.25 278.746094 472.25 C 278.148438 472.25 277.554688 472.191406 276.96875 472.074219 C 276.378906 471.957031 275.808594 471.785156 275.253906 471.554688 C 274.703125 471.324219 274.175781 471.042969 273.675781 470.710938 C 273.179688 470.378906 272.71875 470 272.292969 469.578125 C 271.871094 469.152344 271.492188 468.691406 271.160156 468.195312 C 270.828125 467.695312 270.546875 467.171875 270.316406 466.617188 C 270.085938 466.066406 269.914062 465.496094 269.796875 464.90625 C 269.679688 464.320312 269.621094 463.726562 269.621094 463.128906 C 269.621094 462.527344 269.679688 461.933594 269.796875 461.347656 C 269.914062 460.761719 270.085938 460.191406 270.316406 459.636719 C 270.546875 459.082031 270.828125 458.558594 271.160156 458.058594 C 271.492188 457.5625 271.871094 457.101562 272.292969 456.675781 C 272.71875 456.253906 273.179688 455.875 273.675781 455.542969 C 274.175781 455.210938 274.703125 454.929688 275.253906 454.699219 C 275.808594 454.46875 276.378906 454.296875 276.96875 454.179688 C 277.554688 454.0625 278.148438 454.003906 278.746094 454.003906 C 279.347656 454.003906 279.941406 454.0625 280.527344 454.179688 C 281.117188 454.296875 281.6875 454.46875 282.238281 454.699219 C 282.792969 454.929688 283.320312 455.210938 283.816406 455.542969 C 284.316406 455.875 284.777344 456.253906 285.199219 456.675781 C 285.625 457.101562 286.003906 457.5625 286.335938 458.058594 C 286.667969 458.558594 286.949219 459.082031 287.179688 459.636719 C 287.410156 460.191406 287.582031 460.761719 287.699219 461.347656 C 287.816406 461.933594 287.875 462.527344 287.875 463.128906 Z M 287.875 463.128906 " fill-opacity="1" fill-rule="nonzero"/></g><path fill="#f1f1f1" d="M 264.679688 486.3125 C 264.679688 486.910156 264.621094 487.503906 264.503906 488.089844 C 264.386719 488.679688 264.214844 489.25 263.984375 489.800781 C 263.753906 490.355469 263.472656 490.882812 263.140625 491.378906 C 262.808594 491.878906 262.429688 492.335938 262.007812 492.761719 C 261.582031 493.183594 261.121094 493.5625 260.625 493.894531 C 260.125 494.230469 259.601562 494.507812 259.046875 494.738281 C 258.492188 494.96875 257.921875 495.140625 257.335938 495.257812 C 256.746094 495.375 256.152344 495.433594 255.554688 495.433594 C 254.953125 495.433594 254.359375 495.375 253.773438 495.257812 C 253.183594 495.140625 252.613281 494.96875 252.0625 494.738281 C 251.507812 494.507812 250.980469 494.230469 250.484375 493.894531 C 249.984375 493.5625 249.523438 493.183594 249.101562 492.761719 C 248.675781 492.335938 248.296875 491.878906 247.964844 491.378906 C 247.632812 490.882812 247.351562 490.355469 247.121094 489.800781 C 246.894531 489.25 246.71875 488.679688 246.601562 488.089844 C 246.484375 487.503906 246.425781 486.910156 246.425781 486.3125 C 246.425781 485.710938 246.484375 485.117188 246.601562 484.53125 C 246.71875 483.945312 246.894531 483.375 247.121094 482.820312 C 247.351562 482.265625 247.632812 481.742188 247.964844 481.242188 C 248.296875 480.746094 248.675781 480.285156 249.101562 479.859375 C 249.523438 479.4375 249.984375 479.058594 250.484375 478.726562 C 250.980469 478.394531 251.507812 478.113281 252.0625 477.882812 C 252.613281 477.652344 253.183594 477.480469 253.773438 477.363281 C 254.359375 477.246094 254.953125 477.1875 255.554688 477.1875 C 256.152344 477.1875 256.746094 477.246094 257.335938 477.363281 C 257.921875 477.480469 258.492188 477.652344 259.046875 477.882812 C 259.601562 478.113281 260.125 478.394531 260.625 478.726562 C 261.121094 479.058594 261.582031 479.4375 262.007812 479.859375 C 262.429688 480.285156 262.808594 480.746094 263.140625 481.242188 C 263.472656 481.742188 263.753906 482.265625 263.984375 482.820312 C 264.214844 483.375 264.386719 483.945312 264.503906 484.53125 C 264.621094 485.117188 264.679688 485.710938 264.679688 486.3125 Z M 264.679688 486.3125 " fill-opacity="1" fill-rule="nonzero"/><path fill="#f1f1f1" d="M 258.882812 897.828125 C 258.882812 898.425781 258.824219 899.019531 258.707031 899.605469 C 258.589844 900.195312 258.414062 900.765625 258.1875 901.316406 C 257.957031 901.871094 257.675781 902.394531 257.34375 902.894531 C 257.011719 903.390625 256.632812 903.851562 256.207031 904.277344 C 255.785156 904.699219 255.324219 905.078125 254.824219 905.410156 C 254.328125 905.742188 253.800781 906.023438 253.246094 906.253906 C 252.695312 906.484375 252.125 906.65625 251.535156 906.773438 C 250.949219 906.890625 250.355469 906.949219 249.753906 906.949219 C 249.15625 906.949219 248.5625 906.890625 247.976562 906.773438 C 247.386719 906.65625 246.816406 906.484375 246.261719 906.253906 C 245.710938 906.023438 245.183594 905.742188 244.683594 905.410156 C 244.1875 905.078125 243.726562 904.699219 243.300781 904.277344 C 242.878906 903.851562 242.5 903.390625 242.167969 902.894531 C 241.835938 902.394531 241.554688 901.871094 241.324219 901.316406 C 241.09375 900.765625 240.921875 900.195312 240.804688 899.605469 C 240.6875 899.019531 240.628906 898.425781 240.628906 897.828125 C 240.628906 897.226562 240.6875 896.632812 240.804688 896.046875 C 240.921875 895.460938 241.09375 894.890625 241.324219 894.335938 C 241.554688 893.78125 241.835938 893.257812 242.167969 892.757812 C 242.5 892.261719 242.878906 891.800781 243.300781 891.375 C 243.726562 890.953125 244.1875 890.574219 244.683594 890.242188 C 245.183594 889.910156 245.710938 889.628906 246.261719 889.398438 C 246.816406 889.167969 247.386719 888.996094 247.976562 888.878906 C 248.5625 888.761719 249.15625 888.703125 249.753906 888.703125 C 250.355469 888.703125 250.949219 888.761719 251.535156 888.878906 C 252.125 888.996094 252.695312 889.167969 253.246094 889.398438 C 253.800781 889.628906 254.328125 889.910156 254.824219 890.242188 C 255.324219 890.574219 255.785156 890.953125 256.207031 891.375 C 256.632812 891.800781 257.011719 892.261719 257.34375 892.757812 C 257.675781 893.257812 257.957031 893.78125 258.1875 894.335938 C 258.414062 894.890625 258.589844 895.460938 258.707031 896.046875 C 258.824219 896.632812 258.882812 897.226562 258.882812 897.828125 Z M 258.882812 897.828125 " fill-opacity="1" fill-rule="nonzero"/><path fill="#9f616a" d="M 561.753906 974.941406 L 551.828125 974.941406 L 551.257812 937.261719 L 561.753906 936.667969 Z M 561.753906 974.941406 " fill-opacity="1" fill-rule="nonzero"/><path fill="#2f2e41" d="M 564.292969 984.566406 L 532.269531 984.566406 L 532.269531 984.152344 C 532.269531 983.335938 532.351562 982.523438 532.511719 981.722656 C 532.671875 980.921875 532.90625 980.140625 533.222656 979.386719 C 533.535156 978.628906 533.917969 977.914062 534.375 977.234375 C 534.828125 976.554688 535.347656 975.921875 535.925781 975.34375 C 536.503906 974.765625 537.132812 974.25 537.8125 973.796875 C 538.492188 973.339844 539.210938 972.957031 539.96875 972.644531 C 540.722656 972.328125 541.503906 972.09375 542.304688 971.933594 C 543.109375 971.773438 543.917969 971.691406 544.738281 971.691406 L 564.292969 971.691406 Z M 564.292969 984.566406 " fill-opacity="1" fill-rule="nonzero"/><path fill="#9f616a" d="M 618.578125 963.507812 L 609.476562 967.472656 L 593.894531 933.164062 L 603.277344 928.425781 Z M 618.578125 963.507812 " fill-opacity="1" fill-rule="nonzero"/><path fill="#2f2e41" d="M 595.398438 984.113281 L 595.230469 983.730469 C 594.90625 982.980469 594.652344 982.207031 594.480469 981.40625 C 594.304688 980.609375 594.210938 979.800781 594.195312 978.980469 C 594.179688 978.164062 594.246094 977.351562 594.390625 976.546875 C 594.535156 975.738281 594.757812 974.957031 595.054688 974.195312 C 595.355469 973.433594 595.726562 972.707031 596.167969 972.019531 C 596.609375 971.332031 597.117188 970.691406 597.683594 970.101562 C 598.253906 969.515625 598.871094 968.984375 599.542969 968.519531 C 600.21875 968.050781 600.929688 967.65625 601.679688 967.328125 L 619.605469 959.515625 L 624.753906 971.320312 Z M 595.398438 984.113281 " fill-opacity="1" fill-rule="nonzero"/><path fill="#9f616a" d="M 600.902344 656.035156 C 600.902344 656.738281 600.867188 657.441406 600.796875 658.140625 C 600.726562 658.84375 600.625 659.539062 600.488281 660.230469 C 600.351562 660.917969 600.179688 661.601562 599.976562 662.273438 C 599.769531 662.949219 599.535156 663.609375 599.261719 664.261719 C 598.992188 664.914062 598.691406 665.546875 598.359375 666.167969 C 598.027344 666.789062 597.667969 667.394531 597.277344 667.976562 C 596.882812 668.5625 596.464844 669.128906 596.019531 669.671875 C 595.570312 670.21875 595.097656 670.738281 594.601562 671.238281 C 594.101562 671.734375 593.582031 672.207031 593.039062 672.652344 C 592.492188 673.101562 591.925781 673.519531 591.34375 673.910156 C 590.757812 674.300781 590.152344 674.664062 589.53125 674.996094 C 588.910156 675.328125 588.273438 675.628906 587.625 675.898438 C 586.972656 676.167969 586.308594 676.402344 585.636719 676.609375 C 584.960938 676.8125 584.28125 676.984375 583.589844 677.121094 C 582.898438 677.257812 582.203125 677.359375 581.5 677.429688 C 580.800781 677.5 580.097656 677.535156 579.390625 677.535156 C 578.6875 677.535156 577.984375 677.5 577.285156 677.429688 C 576.582031 677.359375 575.886719 677.257812 575.195312 677.121094 C 574.503906 676.984375 573.824219 676.8125 573.148438 676.609375 C 572.476562 676.402344 571.8125 676.167969 571.160156 675.898438 C 570.511719 675.628906 569.875 675.328125 569.253906 674.996094 C 568.632812 674.664062 568.027344 674.300781 567.441406 673.910156 C 566.855469 673.519531 566.292969 673.101562 565.746094 672.652344 C 565.203125 672.207031 564.683594 671.734375 564.183594 671.238281 C 563.6875 670.738281 563.214844 670.21875 562.765625 669.671875 C 562.320312 669.128906 561.898438 668.5625 561.507812 667.976562 C 561.117188 667.394531 560.753906 666.789062 560.421875 666.167969 C 560.089844 665.546875 559.789062 664.914062 559.519531 664.261719 C 559.25 663.609375 559.015625 662.949219 558.808594 662.273438 C 558.605469 661.601562 558.433594 660.917969 558.296875 660.230469 C 558.160156 659.539062 558.058594 658.84375 557.988281 658.140625 C 557.917969 657.441406 557.882812 656.738281 557.882812 656.035156 C 557.882812 655.332031 557.917969 654.628906 557.988281 653.925781 C 558.058594 653.226562 558.160156 652.53125 558.296875 651.839844 C 558.433594 651.148438 558.605469 650.46875 558.808594 649.792969 C 559.015625 649.121094 559.25 648.457031 559.519531 647.808594 C 559.789062 647.15625 560.089844 646.519531 560.421875 645.898438 C 560.753906 645.277344 561.117188 644.675781 561.507812 644.089844 C 561.898438 643.503906 562.320312 642.941406 562.765625 642.394531 C 563.214844 641.851562 563.6875 641.332031 564.183594 640.832031 C 564.683594 640.335938 565.203125 639.863281 565.746094 639.414062 C 566.292969 638.96875 566.855469 638.550781 567.441406 638.160156 C 568.027344 637.765625 568.632812 637.40625 569.253906 637.074219 C 569.875 636.742188 570.511719 636.441406 571.160156 636.171875 C 571.8125 635.902344 572.476562 635.664062 573.148438 635.460938 C 573.824219 635.257812 574.503906 635.085938 575.195312 634.949219 C 575.886719 634.8125 576.582031 634.707031 577.285156 634.640625 C 577.984375 634.570312 578.6875 634.535156 579.390625 634.535156 C 580.097656 634.535156 580.800781 634.570312 581.5 634.640625 C 582.203125 634.707031 582.898438 634.8125 583.589844 634.949219 C 584.28125 635.085938 584.960938 635.257812 585.636719 635.460938 C 586.308594 635.664062 586.972656 635.902344 587.625 636.171875 C 588.273438 636.441406 588.910156 636.742188 589.53125 637.074219 C 590.152344 637.40625 590.757812 637.765625 591.34375 638.160156 C 591.925781 638.550781 592.492188 638.96875 593.039062 639.414062 C 593.582031 639.863281 594.101562 640.335938 594.601562 640.832031 C 595.097656 641.332031 595.570312 641.851562 596.019531 642.394531 C 596.464844 642.941406 596.882812 643.503906 597.277344 644.089844 C 597.667969 644.675781 598.027344 645.277344 598.359375 645.898438 C 598.691406 646.519531 598.992188 647.15625 599.261719 647.808594 C 599.535156 648.457031 599.769531 649.121094 599.976562 649.792969 C 600.179688 650.46875 600.351562 651.148438 600.488281 651.839844 C 600.625 652.53125 600.726562 653.226562 600.796875 653.925781 C 600.867188 654.628906 600.902344 655.332031 600.902344 656.035156 Z M 600.902344 656.035156 " fill-opacity="1" fill-rule="nonzero"/><path fill="#2f2e41" d="M 617.890625 945.523438 L 590.09375 877.640625 L 603.59375 814.125 L 577.980469 812.734375 L 563.878906 883.792969 L 599.425781 954.253906 Z M 617.890625 945.523438 " fill-opacity="1" fill-rule="nonzero"/><path fill="#2f2e41" d="M 587.511719 801.421875 L 574.40625 882.601562 L 570.464844 960.410156 L 547.839844 960.210938 L 547 811.347656 Z M 587.511719 801.421875 " fill-opacity="1" fill-rule="nonzero"/><path fill="#cbcbcb" d="M 605.488281 806.050781 L 604.199219 817.808594 L 540.070312 820.679688 L 544.410156 802.996094 Z M 605.488281 806.050781 " fill-opacity="1" fill-rule="nonzero"/><path fill="#9f616a" d="M 544.507812 828.25 C 544.199219 827.863281 543.933594 827.449219 543.710938 827.011719 C 543.484375 826.574219 543.304688 826.117188 543.171875 825.640625 C 543.039062 825.167969 542.953125 824.683594 542.914062 824.191406 C 542.875 823.703125 542.886719 823.210938 542.945312 822.722656 C 543.003906 822.234375 543.109375 821.753906 543.265625 821.285156 C 543.417969 820.816406 543.617188 820.371094 543.863281 819.941406 C 544.105469 819.511719 544.386719 819.109375 544.710938 818.738281 C 545.03125 818.367188 545.390625 818.027344 545.777344 817.726562 C 546.105469 817.472656 546.453125 817.25 546.816406 817.050781 L 571.96875 722.566406 L 586.878906 729.117188 L 557.328125 820.421875 C 557.679688 821.1875 557.898438 821.988281 557.980469 822.824219 C 558.058594 823.664062 558 824.492188 557.800781 825.308594 C 557.601562 826.128906 557.273438 826.890625 556.816406 827.597656 C 556.355469 828.304688 555.796875 828.914062 555.132812 829.433594 C 554.742188 829.738281 554.328125 830.007812 553.886719 830.230469 C 553.445312 830.457031 552.988281 830.640625 552.511719 830.777344 C 552.035156 830.910156 551.550781 831 551.054688 831.042969 C 550.5625 831.082031 550.070312 831.078125 549.574219 831.023438 C 549.082031 830.96875 548.601562 830.863281 548.128906 830.714844 C 547.65625 830.566406 547.203125 830.375 546.769531 830.136719 C 546.332031 829.898438 545.925781 829.621094 545.546875 829.300781 C 545.164062 828.984375 544.820312 828.632812 544.507812 828.25 Z M 544.507812 828.25 " fill-opacity="1" fill-rule="nonzero"/><path fill="#3f3d56" d="M 560.40625 698.226562 L 563.371094 692.101562 C 563.371094 692.101562 577.980469 679.480469 593.386719 687.046875 L 595.761719 694.117188 L 608.328125 714.402344 L 605.488281 808.085938 C 605.488281 808.085938 553.0625 804.101562 540.070312 808.851562 L 545.78125 734.613281 Z M 560.40625 698.226562 " fill-opacity="1" fill-rule="nonzero"/><path fill="#cbcbcb" d="M 563.132812 817.125 L 541 810.9375 L 561.46875 746.988281 L 563.324219 711.28125 C 563.433594 709.457031 563.90625 707.734375 564.746094 706.113281 C 565.585938 704.492188 566.71875 703.109375 568.144531 701.96875 C 568.996094 701.277344 569.90625 700.683594 570.878906 700.183594 C 571.851562 699.683594 572.867188 699.289062 573.921875 698.996094 C 574.976562 698.707031 576.050781 698.527344 577.140625 698.457031 C 578.234375 698.390625 579.320312 698.433594 580.40625 698.589844 C 587.636719 699.578125 592.957031 705.109375 593.054688 711.734375 L 593.054688 711.769531 L 593.050781 711.800781 L 585.941406 761.84375 L 583.664062 769.992188 Z M 563.132812 817.125 " fill-opacity="1" fill-rule="nonzero"/><path fill="#2f2e41" d="M 589.140625 672.886719 L 594.039062 674.125 L 601.457031 666.238281 C 601.457031 666.238281 615.097656 634.617188 584.953125 629.777344 C 554.808594 624.9375 561.394531 637.15625 557.363281 644.816406 L 569.679688 648.015625 L 580.765625 659.34375 C 580.765625 659.34375 588 654.046875 590.125 658.851562 C 592.253906 663.65625 589.140625 672.886719 589.140625 672.886719 Z M 589.140625 672.886719 " fill-opacity="1" fill-rule="nonzero"/><path fill="#ffffff" d="M 81.242188 520.042969 L 417.636719 520.042969 L 417.636719 856.289062 L 81.242188 856.289062 Z M 81.242188 520.042969 " fill-opacity="1" fill-rule="nonzero"/><path fill="#e5e5e5" d="M 417.636719 856.289062 L 81.242188 856.289062 L 81.242188 520.042969 L 417.636719 520.042969 Z M 86.214844 851.320312 L 412.667969 851.320312 L 412.667969 525.011719 L 86.214844 525.011719 Z M 86.214844 851.320312 " fill-opacity="1" fill-rule="nonzero"/><path fill="#ec462f" d="M 150.601562 664.589844 L 366.34375 664.589844 L 366.34375 672.203125 L 150.601562 672.203125 Z M 150.601562 664.589844 " fill-opacity="1" fill-rule="nonzero"/><path fill="#ec462f" d="M 150.601562 684.382812 L 366.34375 684.382812 L 366.34375 691.996094 L 150.601562 691.996094 Z M 150.601562 684.382812 " fill-opacity="1" fill-rule="nonzero"/><path fill="#ec462f" d="M 150.601562 704.171875 L 366.34375 704.171875 L 366.34375 711.785156 L 150.601562 711.785156 Z M 150.601562 704.171875 " fill-opacity="1" fill-rule="nonzero"/><path fill="#ec462f" d="M 142.476562 669.511719 C 142.476562 669.835938 142.445312 670.160156 142.382812 670.480469 C 142.320312 670.800781 142.222656 671.109375 142.097656 671.410156 C 141.972656 671.714844 141.820312 672 141.640625 672.269531 C 141.457031 672.542969 141.253906 672.792969 141.023438 673.023438 C 140.792969 673.253906 140.539062 673.460938 140.269531 673.640625 C 139.996094 673.824219 139.710938 673.976562 139.410156 674.101562 C 139.109375 674.226562 138.796875 674.320312 138.476562 674.382812 C 138.15625 674.445312 137.835938 674.480469 137.507812 674.480469 C 137.179688 674.480469 136.859375 674.445312 136.539062 674.382812 C 136.21875 674.320312 135.90625 674.226562 135.605469 674.101562 C 135.304688 673.976562 135.019531 673.824219 134.746094 673.640625 C 134.476562 673.460938 134.222656 673.253906 133.992188 673.023438 C 133.761719 672.792969 133.554688 672.542969 133.375 672.269531 C 133.195312 672 133.039062 671.714844 132.914062 671.410156 C 132.789062 671.109375 132.695312 670.800781 132.632812 670.480469 C 132.570312 670.160156 132.539062 669.835938 132.539062 669.511719 C 132.539062 669.183594 132.570312 668.863281 132.632812 668.542969 C 132.695312 668.222656 132.789062 667.910156 132.914062 667.609375 C 133.039062 667.308594 133.195312 667.023438 133.375 666.75 C 133.554688 666.480469 133.761719 666.230469 133.992188 665.996094 C 134.222656 665.765625 134.476562 665.5625 134.746094 665.378906 C 135.019531 665.199219 135.304688 665.046875 135.605469 664.921875 C 135.90625 664.796875 136.21875 664.703125 136.539062 664.636719 C 136.859375 664.574219 137.179688 664.542969 137.507812 664.542969 C 137.835938 664.542969 138.15625 664.574219 138.476562 664.636719 C 138.796875 664.703125 139.109375 664.796875 139.410156 664.921875 C 139.710938 665.046875 139.996094 665.199219 140.269531 665.378906 C 140.539062 665.5625 140.792969 665.765625 141.023438 665.996094 C 141.253906 666.230469 141.457031 666.480469 141.640625 666.75 C 141.820312 667.023438 141.972656 667.308594 142.097656 667.609375 C 142.222656 667.910156 142.320312 668.222656 142.382812 668.542969 C 142.445312 668.863281 142.476562 669.183594 142.476562 669.511719 Z M 142.476562 669.511719 " fill-opacity="1" fill-rule="nonzero"/><path fill="#e5e5e5" d="M 150.601562 579.304688 L 366.34375 579.304688 L 366.34375 586.917969 L 150.601562 586.917969 Z M 150.601562 579.304688 " fill-opacity="1" fill-rule="nonzero"/><path fill="#e5e5e5" d="M 150.601562 599.097656 L 366.34375 599.097656 L 366.34375 606.710938 L 150.601562 606.710938 Z M 150.601562 599.097656 " fill-opacity="1" fill-rule="nonzero"/><path fill="#e5e5e5" d="M 150.601562 618.890625 L 366.34375 618.890625 L 366.34375 626.503906 L 150.601562 626.503906 Z M 150.601562 618.890625 " fill-opacity="1" fill-rule="nonzero"/><path fill="#e5e5e5" d="M 142.476562 583.398438 C 142.476562 583.726562 142.445312 584.046875 142.382812 584.367188 C 142.320312 584.6875 142.222656 585 142.097656 585.300781 C 141.972656 585.601562 141.820312 585.886719 141.640625 586.160156 C 141.457031 586.429688 141.253906 586.679688 141.023438 586.910156 C 140.792969 587.140625 140.539062 587.347656 140.269531 587.53125 C 139.996094 587.710938 139.710938 587.863281 139.410156 587.988281 C 139.109375 588.113281 138.796875 588.207031 138.476562 588.269531 C 138.15625 588.335938 137.835938 588.367188 137.507812 588.367188 C 137.179688 588.367188 136.859375 588.335938 136.539062 588.269531 C 136.21875 588.207031 135.90625 588.113281 135.605469 587.988281 C 135.304688 587.863281 135.019531 587.710938 134.746094 587.53125 C 134.476562 587.347656 134.222656 587.140625 133.992188 586.910156 C 133.761719 586.679688 133.554688 586.429688 133.375 586.160156 C 133.195312 585.886719 133.039062 585.601562 132.914062 585.300781 C 132.789062 585 132.695312 584.6875 132.632812 584.367188 C 132.570312 584.046875 132.539062 583.726562 132.539062 583.398438 C 132.539062 583.074219 132.570312 582.75 132.632812 582.429688 C 132.695312 582.109375 132.789062 581.800781 132.914062 581.496094 C 133.039062 581.195312 133.195312 580.910156 133.375 580.640625 C 133.554688 580.367188 133.761719 580.117188 133.992188 579.886719 C 134.222656 579.65625 134.476562 579.449219 134.746094 579.269531 C 135.019531 579.085938 135.304688 578.933594 135.605469 578.808594 C 135.90625 578.683594 136.21875 578.589844 136.539062 578.527344 C 136.859375 578.460938 137.179688 578.429688 137.507812 578.429688 C 137.835938 578.429688 138.15625 578.460938 138.476562 578.527344 C 138.796875 578.589844 139.109375 578.683594 139.410156 578.808594 C 139.710938 578.933594 139.996094 579.085938 140.269531 579.269531 C 140.539062 579.449219 140.792969 579.65625 141.023438 579.886719 C 141.253906 580.117188 141.457031 580.367188 141.640625 580.640625 C 141.820312 580.910156 141.972656 581.195312 142.097656 581.496094 C 142.222656 581.800781 142.320312 582.109375 142.382812 582.429688 C 142.445312 582.75 142.476562 583.074219 142.476562 583.398438 Z M 142.476562 583.398438 " fill-opacity="1" fill-rule="nonzero"/><path fill="#e5e5e5" d="M 150.601562 750.699219 L 366.34375 750.699219 L 366.34375 758.3125 L 150.601562 758.3125 Z M 150.601562 750.699219 " fill-opacity="1" fill-rule="nonzero"/><path fill="#e5e5e5" d="M 150.601562 770.492188 L 366.34375 770.492188 L 366.34375 778.105469 L 150.601562 778.105469 Z M 150.601562 770.492188 " fill-opacity="1" fill-rule="nonzero"/><path fill="#e5e5e5" d="M 150.601562 790.285156 L 366.34375 790.285156 L 366.34375 797.898438 L 150.601562 797.898438 Z M 150.601562 790.285156 " fill-opacity="1" fill-rule="nonzero"/><path fill="#e5e5e5" d="M 142.476562 754.792969 C 142.476562 755.121094 142.445312 755.445312 142.382812 755.765625 C 142.320312 756.082031 142.222656 756.394531 142.097656 756.695312 C 141.972656 756.996094 141.820312 757.285156 141.640625 757.554688 C 141.457031 757.824219 141.253906 758.078125 141.023438 758.308594 C 140.792969 758.539062 140.539062 758.746094 140.269531 758.925781 C 139.996094 759.105469 139.710938 759.257812 139.410156 759.382812 C 139.109375 759.507812 138.796875 759.605469 138.476562 759.667969 C 138.15625 759.730469 137.835938 759.761719 137.507812 759.761719 C 137.179688 759.761719 136.859375 759.730469 136.539062 759.667969 C 136.21875 759.605469 135.90625 759.507812 135.605469 759.382812 C 135.304688 759.257812 135.019531 759.105469 134.746094 758.925781 C 134.476562 758.746094 134.222656 758.539062 133.992188 758.308594 C 133.761719 758.078125 133.554688 757.824219 133.375 757.554688 C 133.195312 757.285156 133.039062 756.996094 132.914062 756.695312 C 132.789062 756.394531 132.695312 756.082031 132.632812 755.765625 C 132.570312 755.445312 132.539062 755.121094 132.539062 754.792969 C 132.539062 754.46875 132.570312 754.144531 132.632812 753.824219 C 132.695312 753.503906 132.789062 753.195312 132.914062 752.894531 C 133.039062 752.59375 133.195312 752.304688 133.375 752.035156 C 133.554688 751.761719 133.761719 751.511719 133.992188 751.28125 C 134.222656 751.050781 134.476562 750.84375 134.746094 750.664062 C 135.019531 750.484375 135.304688 750.328125 135.605469 750.203125 C 135.90625 750.078125 136.21875 749.984375 136.539062 749.921875 C 136.859375 749.859375 137.179688 749.828125 137.507812 749.828125 C 137.835938 749.828125 138.15625 749.859375 138.476562 749.921875 C 138.796875 749.984375 139.109375 750.078125 139.410156 750.203125 C 139.710938 750.328125 139.996094 750.484375 140.269531 750.664062 C 140.539062 750.84375 140.792969 751.050781 141.023438 751.28125 C 141.253906 751.511719 141.457031 751.761719 141.640625 752.035156 C 141.820312 752.304688 141.972656 752.59375 142.097656 752.894531 C 142.222656 753.195312 142.320312 753.503906 142.382812 753.824219 C 142.445312 754.144531 142.476562 754.46875 142.476562 754.792969 Z M 142.476562 754.792969 " fill-opacity="1" fill-rule="nonzero"/><g clip-path="url(#3b27a087e3)"><path fill="#cbcbcb" d="M 727.925781 985.542969 L 480.246094 985.542969 C 480.019531 985.542969 479.824219 985.460938 479.660156 985.300781 C 479.5 985.140625 479.417969 984.945312 479.417969 984.714844 C 479.417969 984.484375 479.5 984.292969 479.660156 984.128906 C 479.824219 983.96875 480.019531 983.886719 480.246094 983.886719 L 727.925781 983.886719 C 728.15625 983.886719 728.351562 983.96875 728.511719 984.128906 C 728.675781 984.292969 728.757812 984.484375 728.757812 984.714844 C 728.757812 984.945312 728.675781 985.140625 728.511719 985.300781 C 728.351562 985.460938 728.15625 985.542969 727.925781 985.542969 Z M 727.925781 985.542969 " fill-opacity="1" fill-rule="nonzero"/></g></svg>