<svg xmlns="http://www.w3.org/2000/svg" xmlns:xlink="http://www.w3.org/1999/xlink" width="1080" zoomAndPan="magnify" viewBox="0 0 810 1439.999935" height="1920" preserveAspectRatio="xMidYMid meet" version="1.0"><defs><clipPath id="ef66d92d9e"><path d="M 265 510.449219 L 409 510.449219 L 409 654 L 265 654 Z M 265 510.449219 " clip-rule="nonzero"/></clipPath><clipPath id="d81acf7958"><path d="M 259 510.449219 L 380 510.449219 L 380 637 L 259 637 Z M 259 510.449219 " clip-rule="nonzero"/></clipPath><clipPath id="8e799f9253"><path d="M 167 905 L 484 905 L 484 929.699219 L 167 929.699219 Z M 167 905 " clip-rule="nonzero"/></clipPath><clipPath id="634d31a2f3"><path d="M 81 928 L 729 928 L 729 929.699219 L 81 929.699219 Z M 81 928 " clip-rule="nonzero"/></clipPath></defs><path fill="#cacaca" d="M 570.355469 844.316406 C 568.578125 832.332031 568.113281 820.300781 568.960938 808.214844 L 570.355469 788.273438 C 562.660156 803.59375 564.398438 823.761719 570.355469 844.316406 Z M 570.355469 844.316406 " fill-opacity="1" fill-rule="nonzero"/><path fill="#cacaca" d="M 576.359375 847.652344 C 575.503906 840.507812 575.28125 833.347656 575.6875 826.164062 L 576.359375 814.292969 C 572.65625 823.414062 573.492188 835.417969 576.359375 847.652344 Z M 576.359375 847.652344 " fill-opacity="1" fill-rule="nonzero"/><path fill="#f2f2f2" d="M 603.039062 862.332031 L 603.039062 869.003906 C 603.039062 869.269531 602.988281 869.523438 602.886719 869.769531 C 602.785156 870.011719 602.640625 870.230469 602.453125 870.417969 C 602.265625 870.605469 602.046875 870.75 601.804688 870.851562 C 601.558594 870.953125 601.304688 871.003906 601.039062 871.003906 L 597.707031 871.003906 C 597.519531 871.003906 597.363281 871.070312 597.234375 871.199219 C 597.101562 871.332031 597.039062 871.488281 597.039062 871.671875 L 597.039062 926.382812 C 597.035156 926.648438 596.984375 926.902344 596.882812 927.148438 C 596.78125 927.390625 596.636719 927.609375 596.449219 927.796875 C 596.261719 927.980469 596.046875 928.128906 595.800781 928.230469 C 595.558594 928.332031 595.300781 928.382812 595.039062 928.382812 L 554.355469 928.382812 C 554.089844 928.382812 553.832031 928.332031 553.589844 928.230469 C 553.34375 928.128906 553.128906 927.984375 552.9375 927.796875 C 552.75 927.609375 552.605469 927.394531 552.503906 927.148438 C 552.402344 926.902344 552.351562 926.648438 552.351562 926.382812 L 552.351562 871.671875 C 552.351562 871.488281 552.285156 871.332031 552.15625 871.203125 C 552.027344 871.070312 551.871094 871.007812 551.6875 871.003906 L 547.683594 871.003906 C 547.417969 871.003906 547.164062 870.953125 546.917969 870.851562 C 546.671875 870.75 546.457031 870.605469 546.269531 870.417969 C 546.082031 870.230469 545.9375 870.015625 545.835938 869.769531 C 545.734375 869.523438 545.683594 869.269531 545.683594 869.003906 L 545.683594 862.332031 C 545.683594 862.066406 545.734375 861.8125 545.835938 861.566406 C 545.9375 861.320312 546.082031 861.105469 546.269531 860.917969 C 546.457031 860.726562 546.671875 860.582031 546.917969 860.480469 C 547.164062 860.382812 547.417969 860.332031 547.683594 860.332031 L 601.039062 860.332031 C 601.304688 860.332031 601.558594 860.382812 601.804688 860.484375 C 602.050781 860.585938 602.265625 860.730469 602.453125 860.917969 C 602.640625 861.105469 602.785156 861.324219 602.886719 861.566406 C 602.988281 861.8125 603.039062 862.066406 603.039062 862.332031 Z M 603.039062 862.332031 " fill-opacity="1" fill-rule="nonzero"/><path fill="#e6e6e6" d="M 552.414062 872.40625 L 597.097656 872.40625 L 597.097656 874.410156 L 552.414062 874.410156 Z M 552.414062 872.40625 " fill-opacity="1" fill-rule="nonzero"/><path fill="#e6e6e6" d="M 597.039062 901.859375 C 582.085938 908.050781 566.96875 908.117188 551.6875 901.859375 L 551.6875 887.757812 C 555.339844 886.53125 559.070312 885.605469 562.875 884.984375 C 566.679688 884.363281 570.507812 884.050781 574.363281 884.050781 C 578.21875 884.050781 582.046875 884.363281 585.851562 884.984375 C 589.65625 885.605469 593.382812 886.53125 597.039062 887.757812 Z M 597.039062 901.859375 " fill-opacity="1" fill-rule="nonzero"/><path fill="#2f2e41" d="M 406.566406 653.21875 C 406.566406 654.015625 406.527344 654.808594 406.449219 655.601562 C 406.375 656.390625 406.257812 657.175781 406.101562 657.957031 C 405.945312 658.738281 405.753906 659.507812 405.523438 660.269531 C 405.292969 661.03125 405.023438 661.777344 404.71875 662.511719 C 404.414062 663.246094 404.078125 663.964844 403.703125 664.667969 C 403.328125 665.367188 402.917969 666.050781 402.476562 666.710938 C 402.035156 667.371094 401.5625 668.011719 401.058594 668.625 C 400.554688 669.238281 400.019531 669.828125 399.457031 670.390625 C 398.894531 670.953125 398.308594 671.488281 397.691406 671.992188 C 397.078125 672.496094 396.441406 672.96875 395.78125 673.410156 C 395.117188 673.851562 394.4375 674.261719 393.738281 674.636719 C 393.035156 675.011719 392.316406 675.351562 391.582031 675.65625 C 390.847656 675.957031 390.101562 676.226562 389.339844 676.457031 C 388.578125 676.6875 387.808594 676.882812 387.03125 677.035156 C 386.25 677.191406 385.464844 677.308594 384.671875 677.386719 C 383.882812 677.464844 383.089844 677.503906 382.292969 677.503906 C 381.5 677.503906 380.707031 677.464844 379.914062 677.386719 C 379.125 677.308594 378.335938 677.191406 377.558594 677.035156 C 376.777344 676.882812 376.007812 676.6875 375.246094 676.457031 C 374.488281 676.226562 373.738281 675.957031 373.003906 675.65625 C 372.269531 675.351562 371.550781 675.011719 370.851562 674.636719 C 370.148438 674.261719 369.46875 673.851562 368.808594 673.410156 C 368.148438 672.96875 367.507812 672.496094 366.894531 671.992188 C 366.28125 671.488281 365.691406 670.953125 365.128906 670.390625 C 364.566406 669.828125 364.035156 669.238281 363.53125 668.625 C 363.023438 668.011719 362.550781 667.371094 362.109375 666.710938 C 361.667969 666.050781 361.261719 665.367188 360.886719 664.667969 C 360.511719 663.964844 360.171875 663.246094 359.867188 662.511719 C 359.5625 661.777344 359.296875 661.03125 359.066406 660.269531 C 358.832031 659.507812 358.640625 658.738281 358.484375 657.957031 C 358.332031 657.175781 358.214844 656.390625 358.136719 655.601562 C 358.058594 654.808594 358.019531 654.015625 358.019531 653.21875 C 358.019531 652.425781 358.058594 651.632812 358.136719 650.839844 C 358.214844 650.046875 358.332031 649.261719 358.484375 648.480469 C 358.640625 647.703125 358.832031 646.933594 359.066406 646.171875 C 359.296875 645.410156 359.5625 644.660156 359.867188 643.925781 C 360.171875 643.191406 360.511719 642.472656 360.886719 641.773438 C 361.261719 641.070312 361.667969 640.390625 362.109375 639.730469 C 362.550781 639.066406 363.023438 638.429688 363.53125 637.816406 C 364.035156 637.199219 364.566406 636.613281 365.128906 636.050781 C 365.691406 635.488281 366.28125 634.953125 366.894531 634.449219 C 367.507812 633.945312 368.148438 633.472656 368.808594 633.027344 C 369.46875 632.585938 370.148438 632.179688 370.851562 631.804688 C 371.550781 631.429688 372.269531 631.089844 373.003906 630.785156 C 373.738281 630.480469 374.488281 630.214844 375.246094 629.980469 C 376.007812 629.75 376.777344 629.558594 377.558594 629.402344 C 378.335938 629.25 379.125 629.132812 379.914062 629.054688 C 380.707031 628.976562 381.5 628.9375 382.292969 628.9375 C 383.089844 628.9375 383.882812 628.976562 384.671875 629.054688 C 385.464844 629.132812 386.25 629.25 387.03125 629.402344 C 387.808594 629.558594 388.578125 629.75 389.339844 629.980469 C 390.101562 630.214844 390.847656 630.480469 391.582031 630.785156 C 392.316406 631.089844 393.035156 631.429688 393.738281 631.804688 C 394.4375 632.179688 395.117188 632.585938 395.78125 633.027344 C 396.441406 633.472656 397.078125 633.945312 397.691406 634.449219 C 398.308594 634.953125 398.894531 635.488281 399.457031 636.050781 C 400.019531 636.613281 400.554688 637.199219 401.058594 637.816406 C 401.5625 638.429688 402.035156 639.066406 402.476562 639.730469 C 402.917969 640.390625 403.328125 641.070312 403.703125 641.773438 C 404.078125 642.472656 404.414062 643.191406 404.71875 643.925781 C 405.023438 644.660156 405.292969 645.410156 405.523438 646.171875 C 405.753906 646.933594 405.945312 647.703125 406.101562 648.480469 C 406.257812 649.261719 406.375 650.046875 406.449219 650.839844 C 406.527344 651.632812 406.566406 652.425781 406.566406 653.21875 Z M 406.566406 653.21875 " fill-opacity="1" fill-rule="nonzero"/><path fill="#2f2e41" d="M 389.058594 629.605469 C 389.578125 629.605469 390.101562 629.621094 390.621094 629.65625 C 391.144531 629.691406 391.664062 629.738281 392.179688 629.808594 C 392.699219 629.875 393.214844 629.957031 393.726562 630.058594 C 394.238281 630.160156 394.75 630.277344 395.253906 630.410156 C 395.757812 630.542969 396.257812 630.695312 396.753906 630.859375 C 397.25 631.023438 397.738281 631.207031 398.222656 631.402344 C 398.707031 631.601562 399.183594 631.8125 399.652344 632.042969 C 400.125 632.269531 400.585938 632.511719 401.039062 632.773438 C 401.496094 633.03125 401.941406 633.300781 402.375 633.589844 C 402.8125 633.875 403.238281 634.175781 403.65625 634.492188 C 404.074219 634.804688 404.480469 635.132812 404.878906 635.472656 C 405.273438 635.8125 405.660156 636.167969 406.03125 636.53125 C 406.40625 636.898438 406.765625 637.273438 407.117188 637.664062 C 407.464844 638.050781 407.800781 638.453125 408.125 638.863281 C 408.449219 639.273438 408.757812 639.691406 409.054688 640.125 C 409.347656 640.554688 409.632812 640.992188 409.898438 641.441406 C 410.167969 641.890625 410.417969 642.347656 410.65625 642.8125 C 410.894531 643.277344 411.121094 643.75 411.328125 644.230469 C 411.535156 644.710938 411.726562 645.195312 411.902344 645.6875 C 412.082031 646.179688 412.242188 646.675781 412.386719 647.179688 C 412.53125 647.679688 412.65625 648.1875 412.769531 648.695312 C 412.882812 649.207031 412.976562 649.722656 413.054688 650.238281 C 413.132812 650.753906 413.195312 651.273438 413.242188 651.792969 C 413.285156 652.3125 413.3125 652.835938 413.324219 653.359375 C 413.335938 653.878906 413.332031 654.402344 413.308594 654.925781 C 413.285156 655.445312 413.246094 655.96875 413.191406 656.488281 C 413.136719 657.007812 413.0625 657.523438 412.972656 658.039062 C 412.886719 658.554688 412.78125 659.066406 412.65625 659.574219 C 412.535156 660.082031 412.398438 660.585938 412.242188 661.085938 C 412.085938 661.582031 411.917969 662.078125 411.730469 662.566406 C 411.542969 663.054688 411.339844 663.535156 411.125 664.011719 C 410.90625 664.484375 410.671875 664.953125 410.425781 665.414062 C 410.949219 664.753906 411.4375 664.074219 411.894531 663.367188 C 412.347656 662.660156 412.761719 661.929688 413.140625 661.179688 C 413.519531 660.425781 413.859375 659.660156 414.15625 658.875 C 414.453125 658.085938 414.710938 657.289062 414.925781 656.476562 C 415.140625 655.664062 415.3125 654.839844 415.445312 654.011719 C 415.574219 653.179688 415.660156 652.34375 415.703125 651.503906 C 415.746094 650.664062 415.746094 649.824219 415.703125 648.984375 C 415.660156 648.148438 415.570312 647.3125 415.441406 646.480469 C 415.3125 645.652344 415.136719 644.828125 414.921875 644.015625 C 414.707031 643.203125 414.449219 642.40625 414.148438 641.621094 C 413.851562 640.832031 413.511719 640.066406 413.132812 639.316406 C 412.753906 638.566406 412.335938 637.835938 411.882812 637.128906 C 411.429688 636.421875 410.9375 635.738281 410.414062 635.082031 C 409.886719 634.425781 409.332031 633.800781 408.738281 633.199219 C 408.148438 632.601562 407.53125 632.035156 406.878906 631.503906 C 406.230469 630.96875 405.554688 630.46875 404.855469 630.007812 C 404.152344 629.542969 403.429688 629.117188 402.6875 628.726562 C 401.941406 628.339844 401.175781 627.988281 400.394531 627.679688 C 399.613281 627.371094 398.820312 627.101562 398.007812 626.875 C 397.199219 626.648438 396.382812 626.464844 395.554688 626.324219 C 394.726562 626.183594 393.890625 626.085938 393.050781 626.03125 C 392.214844 625.976562 391.375 625.964844 390.535156 625.996094 C 389.695312 626.027344 388.859375 626.105469 388.027344 626.222656 C 387.195312 626.34375 386.371094 626.503906 385.558594 626.710938 C 384.742188 626.914062 383.9375 627.160156 383.148438 627.449219 C 382.359375 627.738281 381.589844 628.066406 380.832031 628.433594 C 380.078125 628.800781 379.34375 629.207031 378.628906 629.652344 C 377.917969 630.097656 377.226562 630.578125 376.566406 631.09375 C 375.902344 631.613281 375.265625 632.160156 374.660156 632.742188 C 374.054688 633.324219 373.480469 633.9375 372.9375 634.578125 C 372.394531 635.222656 371.886719 635.890625 371.414062 636.585938 C 370.941406 637.277344 370.503906 637.996094 370.105469 638.738281 C 371.238281 637.3125 372.519531 636.03125 373.941406 634.894531 C 375.367188 633.757812 376.898438 632.796875 378.539062 632.003906 C 380.179688 631.214844 381.886719 630.617188 383.664062 630.210938 C 385.4375 629.804688 387.234375 629.605469 389.058594 629.605469 Z M 389.058594 629.605469 " fill-opacity="1" fill-rule="nonzero"/><g clip-path="url(#ef66d92d9e)"><path fill="#2f2e41" d="M 408.238281 581.835938 C 408.238281 583.003906 408.210938 584.171875 408.152344 585.335938 C 408.097656 586.503906 408.011719 587.667969 407.894531 588.828125 C 407.78125 589.992188 407.640625 591.148438 407.46875 592.304688 C 407.296875 593.457031 407.097656 594.609375 406.871094 595.753906 C 406.640625 596.898438 406.386719 598.039062 406.101562 599.167969 C 405.820312 600.300781 405.507812 601.425781 405.167969 602.542969 C 404.832031 603.660156 404.464844 604.769531 404.070312 605.867188 C 403.679688 606.96875 403.257812 608.054688 402.8125 609.136719 C 402.363281 610.214844 401.890625 611.28125 401.394531 612.335938 C 400.894531 613.390625 400.371094 614.433594 399.820312 615.460938 C 399.269531 616.492188 398.695312 617.507812 398.09375 618.507812 C 397.496094 619.511719 396.871094 620.496094 396.222656 621.46875 C 395.574219 622.4375 394.902344 623.390625 394.207031 624.328125 C 393.511719 625.265625 392.792969 626.1875 392.054688 627.089844 C 391.3125 627.992188 390.550781 628.875 389.769531 629.742188 C 388.984375 630.605469 388.179688 631.449219 387.355469 632.277344 C 386.53125 633.101562 385.683594 633.90625 384.820312 634.691406 C 383.957031 635.472656 383.070312 636.238281 382.167969 636.976562 C 381.269531 637.71875 380.347656 638.4375 379.410156 639.132812 C 378.472656 639.828125 377.519531 640.5 376.550781 641.148438 C 375.578125 641.796875 374.59375 642.421875 373.59375 643.019531 C 372.589844 643.621094 371.578125 644.195312 370.546875 644.746094 C 369.519531 645.296875 368.476562 645.820312 367.421875 646.320312 C 366.367188 646.820312 365.300781 647.292969 364.222656 647.738281 C 363.144531 648.183594 362.054688 648.605469 360.957031 649 C 359.859375 649.390625 358.75 649.757812 357.632812 650.097656 C 356.515625 650.4375 355.390625 650.746094 354.261719 651.03125 C 353.128906 651.3125 351.988281 651.570312 350.84375 651.796875 C 349.699219 652.027344 348.550781 652.226562 347.398438 652.394531 C 346.242188 652.566406 345.085938 652.710938 343.921875 652.824219 C 342.761719 652.9375 341.597656 653.023438 340.433594 653.082031 C 339.269531 653.140625 338.101562 653.167969 336.933594 653.167969 C 335.769531 653.167969 334.601562 653.140625 333.4375 653.082031 C 332.269531 653.023438 331.105469 652.9375 329.945312 652.824219 C 328.785156 652.710938 327.625 652.566406 326.472656 652.394531 C 325.316406 652.226562 324.167969 652.027344 323.023438 651.796875 C 321.878906 651.570312 320.742188 651.3125 319.609375 651.03125 C 318.476562 650.746094 317.351562 650.4375 316.234375 650.097656 C 315.121094 649.757812 314.011719 649.390625 312.914062 649 C 311.8125 648.605469 310.726562 648.183594 309.648438 647.738281 C 308.570312 647.292969 307.503906 646.820312 306.449219 646.320312 C 305.394531 645.820312 304.351562 645.296875 303.320312 644.746094 C 302.292969 644.195312 301.277344 643.621094 300.277344 643.019531 C 299.277344 642.421875 298.289062 641.796875 297.320312 641.148438 C 296.347656 640.5 295.394531 639.828125 294.457031 639.132812 C 293.519531 638.4375 292.601562 637.71875 291.699219 636.976562 C 290.796875 636.238281 289.914062 635.472656 289.050781 634.691406 C 288.183594 633.90625 287.339844 633.101562 286.515625 632.277344 C 285.6875 631.449219 284.886719 630.605469 284.101562 629.742188 C 283.316406 628.875 282.554688 627.992188 281.816406 627.089844 C 281.074219 626.1875 280.355469 625.265625 279.660156 624.328125 C 278.96875 623.390625 278.296875 622.4375 277.648438 621.46875 C 277 620.496094 276.375 619.511719 275.773438 618.507812 C 275.175781 617.507812 274.597656 616.492188 274.050781 615.460938 C 273.5 614.433594 272.976562 613.390625 272.476562 612.335938 C 271.976562 611.28125 271.503906 610.214844 271.058594 609.136719 C 270.609375 608.054688 270.191406 606.96875 269.796875 605.867188 C 269.40625 604.769531 269.039062 603.660156 268.699219 602.542969 C 268.363281 601.425781 268.050781 600.300781 267.765625 599.167969 C 267.484375 598.039062 267.226562 596.898438 267 595.753906 C 266.773438 594.609375 266.574219 593.457031 266.402344 592.304688 C 266.230469 591.148438 266.085938 589.992188 265.972656 588.828125 C 265.859375 587.667969 265.773438 586.503906 265.714844 585.335938 C 265.660156 584.171875 265.628906 583.003906 265.628906 581.835938 C 265.628906 580.671875 265.660156 579.503906 265.714844 578.335938 C 265.773438 577.171875 265.859375 576.007812 265.972656 574.847656 C 266.085938 573.683594 266.230469 572.527344 266.402344 571.371094 C 266.574219 570.214844 266.773438 569.066406 267 567.921875 C 267.226562 566.777344 267.484375 565.636719 267.765625 564.503906 C 268.050781 563.375 268.363281 562.25 268.699219 561.132812 C 269.039062 560.015625 269.40625 558.90625 269.796875 557.808594 C 270.191406 556.707031 270.609375 555.621094 271.058594 554.539062 C 271.503906 553.460938 271.976562 552.394531 272.476562 551.339844 C 272.976562 550.285156 273.5 549.242188 274.050781 548.210938 C 274.597656 547.183594 275.175781 546.167969 275.773438 545.167969 C 276.375 544.164062 277 543.179688 277.648438 542.207031 C 278.296875 541.238281 278.96875 540.285156 279.660156 539.347656 C 280.355469 538.410156 281.074219 537.488281 281.816406 536.585938 C 282.554688 535.683594 283.316406 534.800781 284.101562 533.933594 C 284.886719 533.070312 285.6875 532.226562 286.515625 531.398438 C 287.339844 530.574219 288.183594 529.769531 289.050781 528.984375 C 289.914062 528.203125 290.796875 527.4375 291.699219 526.699219 C 292.601562 525.957031 293.519531 525.238281 294.457031 524.542969 C 295.394531 523.847656 296.347656 523.175781 297.320312 522.527344 C 298.289062 521.878906 299.277344 521.253906 300.277344 520.65625 C 301.277344 520.054688 302.292969 519.480469 303.320312 518.929688 C 304.351562 518.378906 305.394531 517.855469 306.449219 517.355469 C 307.503906 516.855469 308.570312 516.382812 309.648438 515.9375 C 310.726562 515.488281 311.8125 515.070312 312.914062 514.675781 C 314.011719 514.285156 315.121094 513.917969 316.234375 513.578125 C 317.351562 513.238281 318.476562 512.929688 319.609375 512.644531 C 320.742188 512.359375 321.878906 512.105469 323.023438 511.878906 C 324.167969 511.648438 325.316406 511.449219 326.472656 511.277344 C 327.625 511.109375 328.785156 510.964844 329.945312 510.851562 C 331.105469 510.734375 332.269531 510.648438 333.4375 510.59375 C 334.601562 510.535156 335.769531 510.507812 336.933594 510.507812 C 338.101562 510.507812 339.269531 510.535156 340.433594 510.59375 C 341.597656 510.648438 342.761719 510.734375 343.921875 510.851562 C 345.085938 510.964844 346.242188 511.109375 347.398438 511.277344 C 348.550781 511.449219 349.699219 511.648438 350.84375 511.878906 C 351.988281 512.105469 353.128906 512.359375 354.261719 512.644531 C 355.390625 512.929688 356.515625 513.238281 357.632812 513.578125 C 358.75 513.917969 359.859375 514.285156 360.957031 514.675781 C 362.054688 515.070312 363.144531 515.488281 364.222656 515.9375 C 365.300781 516.382812 366.367188 516.855469 367.421875 517.355469 C 368.476562 517.855469 369.519531 518.378906 370.546875 518.929688 C 371.578125 519.480469 372.589844 520.054688 373.59375 520.65625 C 374.59375 521.253906 375.578125 521.878906 376.550781 522.527344 C 377.519531 523.175781 378.472656 523.847656 379.410156 524.542969 C 380.347656 525.238281 381.269531 525.957031 382.167969 526.699219 C 383.070312 527.4375 383.957031 528.203125 384.820312 528.984375 C 385.683594 529.769531 386.53125 530.574219 387.355469 531.398438 C 388.179688 532.226562 388.984375 533.070312 389.769531 533.933594 C 390.550781 534.800781 391.3125 535.683594 392.054688 536.585938 C 392.792969 537.488281 393.511719 538.410156 394.207031 539.347656 C 394.902344 540.285156 395.574219 541.238281 396.222656 542.207031 C 396.871094 543.179688 397.496094 544.164062 398.09375 545.167969 C 398.695312 546.167969 399.269531 547.183594 399.820312 548.210938 C 400.371094 549.242188 400.894531 550.285156 401.394531 551.339844 C 401.890625 552.394531 402.363281 553.460938 402.8125 554.539062 C 403.257812 555.621094 403.679688 556.707031 404.070312 557.808594 C 404.464844 558.90625 404.832031 560.015625 405.167969 561.132812 C 405.507812 562.25 405.820312 563.375 406.101562 564.503906 C 406.386719 565.636719 406.640625 566.777344 406.871094 567.921875 C 407.097656 569.066406 407.296875 570.214844 407.46875 571.371094 C 407.640625 572.527344 407.78125 573.683594 407.894531 574.847656 C 408.011719 576.007812 408.097656 577.171875 408.152344 578.335938 C 408.210938 579.503906 408.238281 580.671875 408.238281 581.835938 Z M 408.238281 581.835938 " fill-opacity="1" fill-rule="nonzero"/></g><g clip-path="url(#d81acf7958)"><path fill="#2f2e41" d="M 280.972656 537.578125 C 281.730469 536.726562 282.507812 535.890625 283.308594 535.074219 C 284.105469 534.257812 284.921875 533.464844 285.761719 532.6875 C 286.597656 531.910156 287.453125 531.152344 288.324219 530.417969 C 289.199219 529.683594 290.089844 528.96875 290.996094 528.273438 C 291.90625 527.582031 292.828125 526.910156 293.769531 526.261719 C 294.707031 525.613281 295.664062 524.988281 296.632812 524.386719 C 297.601562 523.785156 298.585938 523.207031 299.582031 522.648438 C 300.582031 522.09375 301.589844 521.5625 302.613281 521.058594 C 303.636719 520.550781 304.671875 520.066406 305.71875 519.609375 C 306.765625 519.152344 307.820312 518.722656 308.886719 518.316406 C 309.953125 517.910156 311.03125 517.53125 312.117188 517.175781 C 313.199219 516.820312 314.292969 516.492188 315.394531 516.191406 C 316.496094 515.886719 317.605469 515.613281 318.71875 515.363281 C 319.832031 515.117188 320.953125 514.894531 322.078125 514.699219 C 323.199219 514.503906 324.328125 514.335938 325.464844 514.195312 C 326.597656 514.054688 327.730469 513.941406 328.871094 513.855469 C 330.007812 513.769531 331.148438 513.710938 332.289062 513.679688 C 333.429688 513.648438 334.570312 513.644531 335.714844 513.667969 C 336.855469 513.691406 337.996094 513.742188 339.132812 513.820312 C 340.273438 513.898438 341.410156 514.003906 342.542969 514.136719 C 343.675781 514.269531 344.804688 514.429688 345.933594 514.617188 C 347.058594 514.804688 348.179688 515.015625 349.296875 515.257812 C 350.410156 515.5 351.519531 515.765625 352.625 516.0625 C 353.726562 516.355469 354.824219 516.675781 355.910156 517.023438 C 356.996094 517.371094 358.078125 517.742188 359.144531 518.140625 C 360.214844 518.539062 361.273438 518.964844 362.324219 519.414062 C 363.375 519.863281 364.410156 520.339844 365.4375 520.839844 C 366.464844 521.339844 367.480469 521.863281 368.480469 522.410156 C 369.480469 522.960938 370.46875 523.53125 371.445312 524.128906 C 372.417969 524.722656 373.375 525.339844 374.320312 525.984375 C 375.265625 526.625 376.191406 527.289062 377.105469 527.976562 C 378.019531 528.664062 378.914062 529.371094 379.792969 530.101562 C 379.207031 529.546875 378.632812 528.988281 378.023438 528.449219 C 377.152344 527.671875 376.261719 526.921875 375.351562 526.1875 C 374.445312 525.457031 373.515625 524.75 372.574219 524.0625 C 371.628906 523.378906 370.667969 522.714844 369.691406 522.078125 C 368.714844 521.4375 367.726562 520.824219 366.71875 520.234375 C 365.710938 519.644531 364.691406 519.078125 363.65625 518.539062 C 362.621094 518 361.574219 517.484375 360.515625 516.996094 C 359.457031 516.507812 358.386719 516.046875 357.304688 515.613281 C 356.222656 515.175781 355.128906 514.765625 354.027344 514.382812 C 352.925781 514.003906 351.8125 513.648438 350.695312 513.320312 C 349.574219 512.992188 348.445312 512.691406 347.3125 512.417969 C 346.179688 512.148438 345.039062 511.902344 343.890625 511.6875 C 342.746094 511.472656 341.59375 511.28125 340.4375 511.121094 C 339.28125 510.964844 338.125 510.832031 336.960938 510.730469 C 335.800781 510.625 334.636719 510.550781 333.46875 510.507812 C 332.304688 510.460938 331.136719 510.441406 329.972656 510.453125 C 328.804688 510.464844 327.640625 510.507812 326.476562 510.574219 C 325.3125 510.644531 324.148438 510.742188 322.988281 510.867188 C 321.828125 510.992188 320.671875 511.148438 319.519531 511.328125 C 318.367188 511.511719 317.222656 511.722656 316.078125 511.960938 C 314.9375 512.199219 313.800781 512.46875 312.671875 512.761719 C 311.542969 513.058594 310.421875 513.378906 309.3125 513.730469 C 308.199219 514.078125 307.09375 514.453125 306 514.859375 C 304.90625 515.261719 303.820312 515.691406 302.746094 516.148438 C 301.675781 516.609375 300.613281 517.089844 299.5625 517.601562 C 298.511719 518.109375 297.476562 518.644531 296.453125 519.203125 C 295.429688 519.765625 294.421875 520.347656 293.425781 520.957031 C 292.429688 521.566406 291.453125 522.203125 290.488281 522.859375 C 289.523438 523.515625 288.578125 524.199219 287.648438 524.902344 C 286.71875 525.605469 285.804688 526.332031 284.910156 527.082031 C 284.015625 527.832031 283.140625 528.601562 282.28125 529.394531 C 281.425781 530.1875 280.589844 531 279.773438 531.832031 C 278.957031 532.664062 278.160156 533.515625 277.382812 534.390625 C 276.609375 535.261719 275.855469 536.152344 275.125 537.0625 C 274.394531 537.972656 273.683594 538.898438 273 539.839844 C 272.3125 540.785156 271.652344 541.746094 271.011719 542.722656 C 270.371094 543.699219 269.757812 544.691406 269.167969 545.695312 C 268.578125 546.703125 268.011719 547.722656 267.472656 548.757812 C 266.933594 549.792969 266.417969 550.839844 265.929688 551.898438 C 265.441406 552.960938 264.976562 554.03125 264.542969 555.113281 C 264.105469 556.195312 263.695312 557.289062 263.3125 558.390625 C 262.929688 559.492188 262.578125 560.605469 262.25 561.722656 C 261.921875 562.84375 261.621094 563.972656 261.347656 565.105469 C 261.074219 566.242188 260.828125 567.382812 260.613281 568.527344 C 260.394531 569.675781 260.207031 570.824219 260.046875 571.980469 C 259.886719 573.136719 259.753906 574.296875 259.652344 575.460938 C 259.546875 576.621094 259.472656 577.785156 259.425781 578.953125 C 259.378906 580.117188 259.363281 581.285156 259.375 582.453125 C 259.386719 583.617188 259.425781 584.785156 259.492188 585.949219 C 259.5625 587.113281 259.65625 588.277344 259.78125 589.4375 C 259.90625 590.597656 260.0625 591.753906 260.242188 592.90625 C 260.425781 594.058594 260.636719 595.207031 260.875 596.351562 C 261.113281 597.492188 261.378906 598.628906 261.671875 599.757812 C 261.964844 600.886719 262.289062 602.007812 262.636719 603.121094 C 262.984375 604.234375 263.363281 605.339844 263.765625 606.433594 C 264.167969 607.53125 264.597656 608.613281 265.054688 609.6875 C 265.511719 610.761719 265.992188 611.824219 266.5 612.875 C 267.011719 613.925781 267.542969 614.960938 268.105469 615.988281 C 268.664062 617.011719 269.246094 618.019531 269.855469 619.015625 C 270.464844 620.011719 271.097656 620.992188 271.753906 621.957031 C 272.410156 622.921875 273.09375 623.867188 273.796875 624.796875 C 274.5 625.730469 275.226562 626.644531 275.972656 627.539062 C 276.722656 628.433594 277.492188 629.308594 278.28125 630.167969 C 279.074219 631.023438 279.886719 631.863281 280.71875 632.679688 C 281.550781 633.496094 282.402344 634.292969 283.273438 635.070312 C 283.878906 635.609375 284.503906 636.117188 285.121094 636.632812 C 284.292969 635.84375 283.488281 635.039062 282.699219 634.210938 C 281.910156 633.386719 281.140625 632.539062 280.394531 631.679688 C 279.644531 630.816406 278.917969 629.933594 278.214844 629.039062 C 277.507812 628.140625 276.824219 627.226562 276.164062 626.292969 C 275.5 625.363281 274.863281 624.417969 274.246094 623.457031 C 273.628906 622.496094 273.035156 621.519531 272.46875 620.53125 C 271.898438 619.539062 271.351562 618.539062 270.832031 617.519531 C 270.308594 616.503906 269.8125 615.476562 269.34375 614.4375 C 268.871094 613.398438 268.421875 612.347656 268 611.285156 C 267.582031 610.222656 267.183594 609.152344 266.816406 608.074219 C 266.445312 606.992188 266.101562 605.902344 265.78125 604.808594 C 265.464844 603.710938 265.175781 602.605469 264.910156 601.496094 C 264.644531 600.382812 264.40625 599.269531 264.195312 598.144531 C 263.984375 597.023438 263.800781 595.894531 263.644531 594.765625 C 263.488281 593.632812 263.355469 592.5 263.253906 591.363281 C 263.152344 590.226562 263.078125 589.085938 263.027344 587.945312 C 262.980469 586.804688 262.960938 585.660156 262.96875 584.519531 C 262.976562 583.378906 263.007812 582.238281 263.070312 581.097656 C 263.132812 579.957031 263.222656 578.816406 263.339844 577.683594 C 263.453125 576.546875 263.597656 575.414062 263.769531 574.285156 C 263.941406 573.15625 264.136719 572.03125 264.363281 570.910156 C 264.585938 569.792969 264.839844 568.675781 265.117188 567.570312 C 265.394531 566.460938 265.699219 565.363281 266.03125 564.269531 C 266.363281 563.175781 266.71875 562.09375 267.101562 561.015625 C 267.488281 559.941406 267.894531 558.875 268.328125 557.820312 C 268.765625 556.761719 269.222656 555.71875 269.707031 554.683594 C 270.191406 553.648438 270.703125 552.628906 271.234375 551.617188 C 271.769531 550.609375 272.328125 549.613281 272.910156 548.628906 C 273.488281 547.648438 274.09375 546.679688 274.722656 545.726562 C 275.351562 544.769531 276 543.832031 276.675781 542.910156 C 277.347656 541.988281 278.042969 541.082031 278.757812 540.195312 C 279.476562 539.304688 280.214844 538.433594 280.972656 537.578125 Z M 280.972656 537.578125 " fill-opacity="1" fill-rule="nonzero"/></g><path fill="#ffb8b8" d="M 382.253906 606.621094 C 382.253906 608.125 382.183594 609.628906 382.035156 611.125 C 381.886719 612.621094 381.667969 614.109375 381.375 615.585938 C 381.078125 617.058594 380.714844 618.519531 380.277344 619.957031 C 379.839844 621.398438 379.335938 622.8125 378.761719 624.203125 C 378.183594 625.59375 377.542969 626.953125 376.832031 628.277344 C 376.125 629.605469 375.351562 630.894531 374.515625 632.144531 C 373.679688 633.398438 372.785156 634.605469 371.832031 635.765625 C 370.875 636.929688 369.867188 638.042969 368.804688 639.109375 C 367.742188 640.171875 366.628906 641.179688 365.464844 642.136719 C 364.300781 643.089844 363.097656 643.984375 361.84375 644.820312 C 360.59375 645.65625 359.304688 646.429688 357.980469 647.140625 C 356.652344 647.847656 355.292969 648.492188 353.90625 649.066406 C 352.515625 649.644531 351.101562 650.148438 349.660156 650.585938 C 348.222656 651.023438 346.765625 651.386719 345.289062 651.679688 C 343.816406 651.976562 342.328125 652.195312 340.832031 652.34375 C 339.335938 652.488281 337.835938 652.5625 336.332031 652.5625 C 334.828125 652.5625 333.324219 652.488281 331.828125 652.34375 C 330.332031 652.195312 328.847656 651.976562 327.371094 651.679688 C 325.894531 651.386719 324.4375 651.023438 323 650.585938 C 321.558594 650.148438 320.144531 649.644531 318.753906 649.066406 C 317.367188 648.492188 316.007812 647.847656 314.679688 647.140625 C 313.355469 646.429688 312.066406 645.65625 310.816406 644.820312 C 309.566406 643.984375 308.359375 643.089844 307.195312 642.136719 C 306.03125 641.179688 304.917969 640.171875 303.855469 639.109375 C 302.792969 638.042969 301.785156 636.929688 300.828125 635.765625 C 299.875 634.605469 298.980469 633.398438 298.144531 632.144531 C 297.308594 630.894531 296.535156 629.605469 295.828125 628.277344 C 295.117188 626.953125 294.476562 625.59375 293.902344 624.203125 C 293.324219 622.8125 292.820312 621.398438 292.382812 619.957031 C 291.945312 618.519531 291.582031 617.058594 291.289062 615.585938 C 290.992188 614.109375 290.773438 612.621094 290.625 611.125 C 290.480469 609.628906 290.40625 608.125 290.40625 606.621094 C 290.40625 605.117188 290.480469 603.617188 290.625 602.117188 C 290.773438 600.621094 290.992188 599.132812 291.289062 597.660156 C 291.582031 596.183594 291.945312 594.726562 292.382812 593.285156 C 292.820312 591.847656 293.324219 590.429688 293.902344 589.039062 C 294.476562 587.652344 295.117188 586.292969 295.828125 584.964844 C 296.535156 583.636719 297.308594 582.347656 298.144531 581.097656 C 298.980469 579.847656 299.875 578.640625 300.828125 577.476562 C 301.785156 576.3125 302.792969 575.199219 303.855469 574.136719 C 304.917969 573.070312 306.03125 572.0625 307.195312 571.109375 C 308.359375 570.152344 309.566406 569.257812 310.816406 568.421875 C 312.066406 567.585938 313.355469 566.8125 314.679688 566.105469 C 316.007812 565.394531 317.367188 564.753906 318.753906 564.175781 C 320.144531 563.601562 321.558594 563.09375 323 562.65625 C 324.4375 562.222656 325.894531 561.855469 327.371094 561.5625 C 328.847656 561.269531 330.332031 561.046875 331.828125 560.902344 C 333.324219 560.753906 334.828125 560.679688 336.332031 560.679688 C 337.835938 560.679688 339.335938 560.753906 340.832031 560.902344 C 342.328125 561.046875 343.816406 561.269531 345.289062 561.5625 C 346.765625 561.855469 348.222656 562.222656 349.660156 562.65625 C 351.101562 563.09375 352.515625 563.601562 353.90625 564.175781 C 355.292969 564.753906 356.652344 565.394531 357.980469 566.105469 C 359.304688 566.8125 360.59375 567.585938 361.84375 568.421875 C 363.097656 569.257812 364.300781 570.152344 365.464844 571.109375 C 366.628906 572.0625 367.742188 573.070312 368.804688 574.136719 C 369.867188 575.199219 370.875 576.3125 371.832031 577.476562 C 372.785156 578.640625 373.679688 579.847656 374.515625 581.097656 C 375.351562 582.347656 376.125 583.636719 376.832031 584.964844 C 377.542969 586.292969 378.183594 587.652344 378.761719 589.039062 C 379.335938 590.429688 379.839844 591.847656 380.277344 593.285156 C 380.714844 594.726562 381.078125 596.183594 381.375 597.660156 C 381.667969 599.132812 381.886719 600.621094 382.035156 602.117188 C 382.183594 603.617188 382.253906 605.117188 382.253906 606.621094 Z M 382.253906 606.621094 " fill-opacity="1" fill-rule="nonzero"/><path fill="#cacaca" d="M 359.789062 665.035156 L 310.644531 667.246094 C 310.644531 667.246094 314.746094 692.671875 288.15625 695.089844 C 261.570312 697.507812 237.398438 690.253906 227.730469 708.386719 C 218.0625 726.523438 222.226562 791.097656 222.226562 791.097656 C 222.226562 791.097656 240.355469 856.382812 254.859375 866.054688 C 269.363281 875.726562 396.261719 862.429688 396.261719 862.429688 L 449.371094 795.347656 L 447.570312 743.613281 C 446.632812 716.597656 421.976562 696.316406 395.417969 701.3125 C 394.898438 701.410156 394.371094 701.519531 393.84375 701.632812 C 393.84375 701.632812 388.011719 697.269531 372.003906 689.261719 C 362.214844 684.367188 359.789062 665.035156 359.789062 665.035156 Z M 359.789062 665.035156 " fill-opacity="1" fill-rule="nonzero"/><path fill="#2f2e41" d="M 253.109375 693.878906 C 253.109375 693.878906 264.789062 715.082031 259.957031 745.308594 C 255.121094 775.53125 275.40625 839.457031 275.40625 839.457031 L 289.90625 835.832031 C 289.90625 835.832031 280.238281 772.960938 282.65625 758.453125 C 285.074219 743.945312 285.742188 701.132812 273.65625 693.878906 C 261.570312 686.625 253.109375 693.878906 253.109375 693.878906 Z M 253.109375 693.878906 " fill-opacity="1" fill-rule="nonzero"/><path fill="#2f2e41" d="M 392.992188 704.996094 L 398.074219 838.851562 L 407.742188 844.898438 C 407.742188 844.898438 421.640625 698.003906 414.390625 698.003906 L 399.636719 698.003906 C 399.199219 698.003906 398.765625 698.046875 398.335938 698.132812 C 397.910156 698.21875 397.492188 698.34375 397.089844 698.511719 C 396.6875 698.675781 396.304688 698.882812 395.941406 699.125 C 395.578125 699.367188 395.242188 699.644531 394.933594 699.953125 C 394.625 700.261719 394.347656 700.597656 394.105469 700.960938 C 393.863281 701.324219 393.660156 701.707031 393.492188 702.109375 C 393.324219 702.515625 393.199219 702.929688 393.113281 703.359375 C 393.027344 703.785156 392.984375 704.21875 392.984375 704.65625 C 392.984375 704.769531 392.988281 704.882812 392.992188 704.996094 Z M 392.992188 704.996094 " fill-opacity="1" fill-rule="nonzero"/><path fill="#ec462f" d="M 288.09375 830.390625 C 288.09375 830.789062 288.054688 831.179688 287.976562 831.570312 C 287.902344 831.957031 287.785156 832.335938 287.632812 832.703125 C 287.484375 833.070312 287.296875 833.417969 287.078125 833.75 C 286.855469 834.078125 286.605469 834.382812 286.324219 834.664062 C 286.042969 834.945312 285.738281 835.195312 285.410156 835.417969 C 285.078125 835.636719 284.730469 835.824219 284.363281 835.976562 C 283.996094 836.125 283.621094 836.242188 283.230469 836.320312 C 282.839844 836.394531 282.449219 836.433594 282.050781 836.433594 C 281.65625 836.433594 281.261719 836.394531 280.875 836.320312 C 280.484375 836.242188 280.105469 836.125 279.738281 835.976562 C 279.375 835.824219 279.023438 835.636719 278.695312 835.417969 C 278.363281 835.195312 278.058594 834.945312 277.78125 834.664062 C 277.5 834.382812 277.25 834.078125 277.027344 833.75 C 276.808594 833.417969 276.621094 833.070312 276.46875 832.703125 C 276.316406 832.335938 276.203125 831.957031 276.125 831.570312 C 276.046875 831.179688 276.007812 830.789062 276.007812 830.390625 C 276.007812 829.992188 276.046875 829.601562 276.125 829.210938 C 276.203125 828.820312 276.316406 828.445312 276.46875 828.078125 C 276.621094 827.710938 276.808594 827.363281 277.027344 827.03125 C 277.25 826.703125 277.5 826.398438 277.78125 826.117188 C 278.058594 825.835938 278.363281 825.585938 278.695312 825.363281 C 279.023438 825.144531 279.375 824.957031 279.738281 824.804688 C 280.105469 824.652344 280.484375 824.539062 280.875 824.460938 C 281.261719 824.382812 281.65625 824.34375 282.050781 824.34375 C 282.449219 824.34375 282.839844 824.382812 283.230469 824.460938 C 283.621094 824.539062 283.996094 824.652344 284.363281 824.804688 C 284.730469 824.957031 285.078125 825.144531 285.410156 825.363281 C 285.738281 825.585938 286.042969 825.835938 286.324219 826.117188 C 286.605469 826.398438 286.855469 826.703125 287.078125 827.03125 C 287.296875 827.363281 287.484375 827.710938 287.632812 828.078125 C 287.785156 828.445312 287.902344 828.820312 287.976562 829.210938 C 288.054688 829.601562 288.09375 829.992188 288.09375 830.390625 Z M 288.09375 830.390625 " fill-opacity="1" fill-rule="nonzero"/><path fill="#ec462f" d="M 408.949219 836.433594 C 408.949219 836.832031 408.914062 837.226562 408.835938 837.613281 C 408.757812 838.003906 408.644531 838.382812 408.492188 838.75 C 408.339844 839.113281 408.152344 839.464844 407.933594 839.792969 C 407.710938 840.125 407.460938 840.429688 407.179688 840.710938 C 406.902344 840.988281 406.59375 841.242188 406.265625 841.460938 C 405.9375 841.679688 405.585938 841.867188 405.222656 842.019531 C 404.855469 842.171875 404.476562 842.285156 404.085938 842.363281 C 403.699219 842.441406 403.304688 842.480469 402.910156 842.480469 C 402.511719 842.480469 402.117188 842.441406 401.730469 842.363281 C 401.339844 842.285156 400.960938 842.171875 400.597656 842.019531 C 400.230469 841.867188 399.882812 841.679688 399.550781 841.460938 C 399.222656 841.242188 398.917969 840.988281 398.636719 840.710938 C 398.355469 840.429688 398.105469 840.125 397.882812 839.792969 C 397.664062 839.464844 397.476562 839.113281 397.324219 838.75 C 397.175781 838.382812 397.058594 838.003906 396.980469 837.613281 C 396.90625 837.226562 396.867188 836.832031 396.867188 836.433594 C 396.867188 836.039062 396.90625 835.644531 396.980469 835.253906 C 397.058594 834.867188 397.175781 834.488281 397.324219 834.121094 C 397.476562 833.753906 397.664062 833.40625 397.882812 833.078125 C 398.105469 832.746094 398.355469 832.441406 398.636719 832.160156 C 398.917969 831.878906 399.222656 831.628906 399.550781 831.410156 C 399.882812 831.1875 400.230469 831.003906 400.597656 830.851562 C 400.960938 830.699219 401.339844 830.582031 401.730469 830.507812 C 402.117188 830.429688 402.511719 830.390625 402.910156 830.390625 C 403.304688 830.390625 403.699219 830.429688 404.085938 830.507812 C 404.476562 830.582031 404.855469 830.699219 405.222656 830.851562 C 405.585938 831.003906 405.9375 831.1875 406.265625 831.410156 C 406.59375 831.628906 406.902344 831.878906 407.179688 832.160156 C 407.460938 832.441406 407.710938 832.746094 407.933594 833.078125 C 408.152344 833.40625 408.339844 833.753906 408.492188 834.121094 C 408.644531 834.488281 408.757812 834.867188 408.835938 835.253906 C 408.914062 835.644531 408.949219 836.039062 408.949219 836.433594 Z M 408.949219 836.433594 " fill-opacity="1" fill-rule="nonzero"/><path fill="#2f2e41" d="M 297.050781 549.195312 L 297.050781 595.136719 L 307.6875 595.136719 L 321.222656 580.628906 L 319.410156 595.136719 L 366.421875 595.136719 L 363.523438 580.628906 L 369.324219 595.136719 L 376.816406 595.136719 L 376.816406 549.195312 Z M 297.050781 549.195312 " fill-opacity="1" fill-rule="nonzero"/><path fill="#ffb8b8" d="M 293.425781 596.949219 C 293.425781 597.386719 293.402344 597.820312 293.355469 598.246094 C 293.308594 598.675781 293.242188 599.089844 293.148438 599.496094 C 293.058594 599.898438 292.949219 600.28125 292.816406 600.644531 C 292.683594 601.007812 292.53125 601.34375 292.363281 601.652344 C 292.195312 601.960938 292.011719 602.234375 291.816406 602.480469 C 291.617188 602.722656 291.40625 602.925781 291.1875 603.09375 C 290.96875 603.261719 290.742188 603.386719 290.507812 603.472656 C 290.273438 603.558594 290.039062 603.597656 289.800781 603.597656 C 289.5625 603.597656 289.328125 603.558594 289.09375 603.472656 C 288.859375 603.386719 288.632812 603.261719 288.414062 603.09375 C 288.191406 602.925781 287.984375 602.722656 287.785156 602.480469 C 287.589844 602.234375 287.40625 601.960938 287.238281 601.652344 C 287.070312 601.34375 286.917969 601.007812 286.785156 600.644531 C 286.652344 600.28125 286.542969 599.898438 286.449219 599.496094 C 286.359375 599.089844 286.292969 598.675781 286.246094 598.246094 C 286.199219 597.820312 286.175781 597.386719 286.175781 596.949219 C 286.175781 596.515625 286.199219 596.082031 286.246094 595.652344 C 286.292969 595.226562 286.359375 594.808594 286.449219 594.40625 C 286.542969 594.003906 286.652344 593.621094 286.785156 593.257812 C 286.917969 592.894531 287.070312 592.558594 287.238281 592.25 C 287.40625 591.941406 287.589844 591.664062 287.785156 591.421875 C 287.984375 591.179688 288.191406 590.972656 288.414062 590.808594 C 288.632812 590.640625 288.859375 590.515625 289.09375 590.429688 C 289.328125 590.34375 289.5625 590.300781 289.800781 590.300781 C 290.039062 590.300781 290.273438 590.34375 290.507812 590.429688 C 290.742188 590.515625 290.96875 590.640625 291.1875 590.808594 C 291.40625 590.972656 291.617188 591.179688 291.816406 591.421875 C 292.011719 591.664062 292.195312 591.941406 292.363281 592.25 C 292.53125 592.558594 292.683594 592.894531 292.816406 593.257812 C 292.949219 593.621094 293.058594 594.003906 293.148438 594.40625 C 293.242188 594.808594 293.308594 595.226562 293.355469 595.652344 C 293.402344 596.082031 293.425781 596.515625 293.425781 596.949219 Z M 293.425781 596.949219 " fill-opacity="1" fill-rule="nonzero"/><path fill="#ffb8b8" d="M 386.484375 596.949219 C 386.484375 597.386719 386.460938 597.820312 386.414062 598.246094 C 386.367188 598.675781 386.300781 599.089844 386.207031 599.496094 C 386.117188 599.898438 386.007812 600.28125 385.875 600.644531 C 385.742188 601.007812 385.589844 601.34375 385.421875 601.652344 C 385.253906 601.960938 385.070312 602.234375 384.875 602.480469 C 384.675781 602.722656 384.464844 602.925781 384.246094 603.09375 C 384.027344 603.261719 383.800781 603.386719 383.566406 603.472656 C 383.332031 603.558594 383.097656 603.597656 382.859375 603.597656 C 382.621094 603.597656 382.386719 603.558594 382.152344 603.472656 C 381.917969 603.386719 381.691406 603.261719 381.472656 603.09375 C 381.25 602.925781 381.042969 602.722656 380.84375 602.480469 C 380.648438 602.234375 380.464844 601.960938 380.296875 601.652344 C 380.128906 601.34375 379.976562 601.007812 379.84375 600.644531 C 379.710938 600.28125 379.601562 599.898438 379.507812 599.496094 C 379.417969 599.089844 379.351562 598.675781 379.304688 598.246094 C 379.257812 597.820312 379.234375 597.386719 379.234375 596.949219 C 379.234375 596.515625 379.257812 596.082031 379.304688 595.652344 C 379.351562 595.226562 379.417969 594.808594 379.507812 594.40625 C 379.601562 594.003906 379.710938 593.621094 379.84375 593.257812 C 379.976562 592.894531 380.128906 592.558594 380.296875 592.25 C 380.464844 591.941406 380.648438 591.664062 380.84375 591.421875 C 381.042969 591.179688 381.25 590.972656 381.472656 590.808594 C 381.691406 590.640625 381.917969 590.515625 382.152344 590.429688 C 382.386719 590.34375 382.621094 590.300781 382.859375 590.300781 C 383.097656 590.300781 383.332031 590.34375 383.566406 590.429688 C 383.800781 590.515625 384.027344 590.640625 384.246094 590.808594 C 384.464844 590.972656 384.675781 591.179688 384.875 591.421875 C 385.070312 591.664062 385.253906 591.941406 385.421875 592.25 C 385.589844 592.558594 385.742188 592.894531 385.875 593.257812 C 386.007812 593.621094 386.117188 594.003906 386.207031 594.40625 C 386.300781 594.808594 386.367188 595.226562 386.414062 595.652344 C 386.460938 596.082031 386.484375 596.515625 386.484375 596.949219 Z M 386.484375 596.949219 " fill-opacity="1" fill-rule="nonzero"/><g clip-path="url(#8e799f9253)"><path fill="#3f3d56" d="M 483.449219 916.398438 L 483.449219 920.449219 C 483.453125 921.570312 483.25 922.65625 482.84375 923.699219 C 482.664062 924.160156 482.449219 924.605469 482.195312 925.035156 C 481.800781 925.699219 481.324219 926.304688 480.769531 926.851562 C 480.214844 927.394531 479.597656 927.855469 478.921875 928.242188 C 478.25 928.625 477.535156 928.914062 476.785156 929.113281 C 476.035156 929.3125 475.269531 929.410156 474.492188 929.410156 L 176.667969 929.410156 C 175.890625 929.410156 175.128906 929.3125 174.375 929.113281 C 173.625 928.914062 172.914062 928.625 172.238281 928.242188 C 171.5625 927.855469 170.949219 927.394531 170.390625 926.851562 C 169.835938 926.304688 169.363281 925.699219 168.964844 925.035156 C 168.710938 924.605469 168.496094 924.160156 168.316406 923.699219 C 167.910156 922.65625 167.707031 921.570312 167.710938 920.449219 L 167.710938 916.398438 C 167.710938 915.8125 167.765625 915.230469 167.882812 914.652344 C 167.996094 914.074219 168.167969 913.515625 168.390625 912.972656 C 168.617188 912.429688 168.890625 911.914062 169.21875 911.421875 C 169.542969 910.933594 169.914062 910.480469 170.332031 910.066406 C 170.746094 909.648438 171.199219 909.277344 171.6875 908.949219 C 172.175781 908.625 172.691406 908.347656 173.234375 908.121094 C 173.777344 907.898438 174.339844 907.726562 174.914062 907.613281 C 175.492188 907.496094 176.074219 907.441406 176.664062 907.441406 L 193.835938 907.441406 L 193.835938 905.550781 C 193.835938 905.449219 193.871094 905.359375 193.945312 905.289062 C 194.015625 905.214844 194.105469 905.179688 194.207031 905.179688 L 203.164062 905.179688 C 203.269531 905.179688 203.355469 905.214844 203.429688 905.285156 C 203.503906 905.359375 203.539062 905.449219 203.539062 905.550781 L 203.539062 907.441406 L 209.132812 907.441406 L 209.132812 905.550781 C 209.132812 905.449219 209.171875 905.359375 209.242188 905.289062 C 209.316406 905.214844 209.402344 905.179688 209.507812 905.179688 L 218.464844 905.179688 C 218.566406 905.179688 218.65625 905.214844 218.730469 905.285156 C 218.800781 905.359375 218.839844 905.449219 218.839844 905.550781 L 218.839844 907.441406 L 224.441406 907.441406 L 224.441406 905.550781 C 224.441406 905.449219 224.476562 905.359375 224.550781 905.289062 C 224.621094 905.214844 224.710938 905.179688 224.8125 905.179688 L 233.773438 905.179688 C 233.875 905.179688 233.960938 905.214844 234.035156 905.285156 C 234.109375 905.359375 234.144531 905.449219 234.144531 905.550781 L 234.144531 907.441406 L 239.742188 907.441406 L 239.742188 905.550781 C 239.742188 905.449219 239.777344 905.359375 239.847656 905.289062 C 239.921875 905.214844 240.011719 905.179688 240.113281 905.179688 L 249.070312 905.179688 C 249.175781 905.179688 249.261719 905.214844 249.335938 905.285156 C 249.40625 905.359375 249.445312 905.449219 249.445312 905.550781 L 249.445312 907.441406 L 255.039062 907.441406 L 255.039062 905.550781 C 255.039062 905.449219 255.078125 905.359375 255.148438 905.289062 C 255.222656 905.214844 255.308594 905.179688 255.414062 905.179688 L 264.371094 905.179688 C 264.472656 905.179688 264.5625 905.214844 264.636719 905.285156 C 264.707031 905.359375 264.746094 905.449219 264.746094 905.550781 L 264.746094 907.441406 L 270.347656 907.441406 L 270.347656 905.550781 C 270.347656 905.449219 270.382812 905.359375 270.457031 905.289062 C 270.527344 905.214844 270.617188 905.179688 270.71875 905.179688 L 279.675781 905.179688 C 279.78125 905.179688 279.867188 905.214844 279.941406 905.285156 C 280.015625 905.359375 280.050781 905.449219 280.050781 905.550781 L 280.050781 907.441406 L 285.648438 907.441406 L 285.648438 905.550781 C 285.648438 905.449219 285.683594 905.359375 285.753906 905.289062 C 285.828125 905.214844 285.917969 905.179688 286.019531 905.179688 L 356.183594 905.179688 C 356.285156 905.179688 356.375 905.214844 356.445312 905.285156 C 356.519531 905.359375 356.554688 905.449219 356.558594 905.550781 L 356.558594 907.441406 L 362.160156 907.441406 L 362.160156 905.550781 C 362.160156 905.449219 362.195312 905.359375 362.269531 905.289062 C 362.339844 905.214844 362.429688 905.179688 362.53125 905.179688 L 371.488281 905.179688 C 371.59375 905.179688 371.679688 905.214844 371.753906 905.289062 C 371.824219 905.359375 371.863281 905.449219 371.863281 905.550781 L 371.863281 907.441406 L 377.457031 907.441406 L 377.457031 905.550781 C 377.457031 905.449219 377.496094 905.359375 377.566406 905.289062 C 377.640625 905.214844 377.726562 905.179688 377.832031 905.179688 L 386.789062 905.179688 C 386.890625 905.179688 386.980469 905.214844 387.054688 905.285156 C 387.125 905.359375 387.164062 905.449219 387.164062 905.550781 L 387.164062 907.441406 L 392.757812 907.441406 L 392.757812 905.550781 C 392.757812 905.449219 392.792969 905.359375 392.867188 905.289062 C 392.941406 905.214844 393.027344 905.179688 393.132812 905.179688 L 402.089844 905.179688 C 402.191406 905.179688 402.28125 905.214844 402.351562 905.285156 C 402.425781 905.359375 402.460938 905.449219 402.460938 905.550781 L 402.460938 907.441406 L 408.066406 907.441406 L 408.066406 905.550781 C 408.066406 905.449219 408.101562 905.359375 408.175781 905.289062 C 408.246094 905.214844 408.335938 905.179688 408.4375 905.179688 L 417.394531 905.179688 C 417.496094 905.179688 417.585938 905.214844 417.65625 905.289062 C 417.726562 905.363281 417.761719 905.449219 417.761719 905.550781 L 417.761719 907.441406 L 423.363281 907.441406 L 423.363281 905.550781 C 423.363281 905.449219 423.402344 905.359375 423.472656 905.289062 C 423.546875 905.214844 423.632812 905.179688 423.738281 905.179688 L 432.695312 905.179688 C 432.796875 905.179688 432.886719 905.214844 432.960938 905.285156 C 433.03125 905.359375 433.070312 905.449219 433.070312 905.550781 L 433.070312 907.441406 L 438.664062 907.441406 L 438.664062 905.550781 C 438.664062 905.449219 438.699219 905.359375 438.773438 905.289062 C 438.847656 905.214844 438.933594 905.179688 439.035156 905.179688 L 447.996094 905.179688 C 448.097656 905.179688 448.1875 905.214844 448.257812 905.285156 C 448.332031 905.359375 448.367188 905.449219 448.367188 905.550781 L 448.367188 907.441406 L 474.492188 907.441406 C 475.082031 907.441406 475.664062 907.496094 476.238281 907.613281 C 476.816406 907.726562 477.375 907.894531 477.921875 908.121094 C 478.464844 908.34375 478.980469 908.621094 479.46875 908.949219 C 479.957031 909.273438 480.410156 909.644531 480.824219 910.0625 C 481.242188 910.476562 481.613281 910.929688 481.941406 911.417969 C 482.265625 911.90625 482.542969 912.425781 482.769531 912.96875 C 482.992188 913.511719 483.164062 914.070312 483.277344 914.648438 C 483.394531 915.222656 483.449219 915.808594 483.449219 916.394531 Z M 483.449219 916.398438 " fill-opacity="1" fill-rule="nonzero"/></g><g clip-path="url(#634d31a2f3)"><path fill="#3f3d56" d="M 81.179688 928.367188 L 728.820312 928.367188 L 728.820312 929.699219 L 81.179688 929.699219 Z M 81.179688 928.367188 " fill-opacity="1" fill-rule="nonzero"/></g><path fill="#3f3d56" d="M 459.46875 745.84375 L 186.65625 745.84375 C 186.164062 745.84375 185.675781 745.890625 185.191406 745.988281 C 184.710938 746.082031 184.238281 746.226562 183.785156 746.414062 C 183.328125 746.605469 182.894531 746.835938 182.484375 747.109375 C 182.074219 747.382812 181.695312 747.695312 181.347656 748.042969 C 181 748.390625 180.6875 748.773438 180.414062 749.183594 C 180.140625 749.59375 179.910156 750.023438 179.71875 750.480469 C 179.53125 750.9375 179.390625 751.40625 179.292969 751.890625 C 179.195312 752.375 179.148438 752.863281 179.148438 753.355469 L 179.148438 905.414062 C 179.148438 905.910156 179.195312 906.398438 179.292969 906.882812 C 179.390625 907.363281 179.53125 907.835938 179.71875 908.289062 C 179.910156 908.746094 180.140625 909.179688 180.414062 909.589844 C 180.6875 910 181 910.378906 181.347656 910.726562 C 181.695312 911.074219 182.074219 911.386719 182.484375 911.660156 C 182.894531 911.933594 183.328125 912.167969 183.785156 912.355469 C 184.238281 912.542969 184.710938 912.6875 185.191406 912.78125 C 185.675781 912.878906 186.164062 912.925781 186.65625 912.925781 L 459.46875 912.925781 C 459.960938 912.925781 460.449219 912.878906 460.933594 912.78125 C 461.417969 912.6875 461.886719 912.542969 462.34375 912.355469 C 462.796875 912.167969 463.230469 911.933594 463.640625 911.660156 C 464.050781 911.386719 464.429688 911.074219 464.777344 910.726562 C 465.125 910.378906 465.4375 910 465.710938 909.589844 C 465.984375 909.179688 466.21875 908.746094 466.40625 908.289062 C 466.59375 907.835938 466.738281 907.363281 466.832031 906.878906 C 466.929688 906.398438 466.976562 905.910156 466.976562 905.414062 L 466.976562 753.355469 C 466.976562 752.863281 466.929688 752.375 466.832031 751.890625 C 466.738281 751.40625 466.59375 750.9375 466.40625 750.480469 C 466.21875 750.023438 465.984375 749.59375 465.710938 749.183594 C 465.4375 748.773438 465.125 748.390625 464.777344 748.042969 C 464.429688 747.695312 464.050781 747.382812 463.640625 747.109375 C 463.230469 746.835938 462.796875 746.605469 462.34375 746.414062 C 461.886719 746.226562 461.417969 746.082031 460.933594 745.988281 C 460.449219 745.890625 459.960938 745.84375 459.46875 745.84375 Z M 459.46875 745.84375 " fill-opacity="1" fill-rule="nonzero"/><path fill="#ec462f" d="M 339.957031 798.929688 C 339.957031 799.476562 339.929688 800.023438 339.875 800.566406 C 339.820312 801.109375 339.742188 801.648438 339.636719 802.1875 C 339.527344 802.722656 339.394531 803.25 339.238281 803.773438 C 339.078125 804.296875 338.894531 804.808594 338.6875 805.316406 C 338.476562 805.820312 338.242188 806.3125 337.988281 806.792969 C 337.730469 807.277344 337.449219 807.742188 337.144531 808.199219 C 336.839844 808.652344 336.515625 809.089844 336.171875 809.511719 C 335.824219 809.933594 335.457031 810.339844 335.070312 810.726562 C 334.683594 811.113281 334.28125 811.480469 333.859375 811.824219 C 333.4375 812.171875 333 812.496094 332.542969 812.800781 C 332.089844 813.105469 331.621094 813.382812 331.140625 813.640625 C 330.660156 813.898438 330.167969 814.132812 329.664062 814.339844 C 329.15625 814.550781 328.644531 814.734375 328.121094 814.894531 C 327.597656 815.050781 327.070312 815.183594 326.535156 815.289062 C 326 815.398438 325.460938 815.476562 324.914062 815.53125 C 324.371094 815.585938 323.828125 815.613281 323.28125 815.613281 C 322.734375 815.613281 322.191406 815.585938 321.648438 815.53125 C 321.105469 815.476562 320.5625 815.398438 320.027344 815.289062 C 319.492188 815.183594 318.964844 815.050781 318.441406 814.894531 C 317.917969 814.734375 317.40625 814.550781 316.902344 814.339844 C 316.394531 814.132812 315.902344 813.898438 315.421875 813.640625 C 314.941406 813.382812 314.472656 813.105469 314.019531 812.800781 C 313.5625 812.496094 313.125 812.171875 312.703125 811.824219 C 312.28125 811.480469 311.878906 811.113281 311.492188 810.726562 C 311.105469 810.339844 310.738281 809.933594 310.390625 809.511719 C 310.046875 809.089844 309.722656 808.652344 309.417969 808.199219 C 309.113281 807.742188 308.835938 807.277344 308.578125 806.792969 C 308.320312 806.3125 308.085938 805.820312 307.878906 805.316406 C 307.667969 804.808594 307.484375 804.296875 307.324219 803.773438 C 307.167969 803.25 307.035156 802.722656 306.929688 802.1875 C 306.820312 801.648438 306.742188 801.109375 306.6875 800.566406 C 306.632812 800.023438 306.609375 799.476562 306.609375 798.929688 C 306.609375 798.386719 306.632812 797.839844 306.6875 797.296875 C 306.742188 796.753906 306.820312 796.214844 306.929688 795.675781 C 307.035156 795.140625 307.167969 794.613281 307.324219 794.089844 C 307.484375 793.566406 307.667969 793.054688 307.878906 792.546875 C 308.085938 792.042969 308.320312 791.550781 308.578125 791.070312 C 308.835938 790.585938 309.113281 790.117188 309.417969 789.664062 C 309.722656 789.210938 310.046875 788.773438 310.390625 788.351562 C 310.738281 787.929688 311.105469 787.523438 311.492188 787.136719 C 311.878906 786.75 312.28125 786.382812 312.703125 786.039062 C 313.125 785.691406 313.5625 785.367188 314.019531 785.0625 C 314.472656 784.757812 314.941406 784.480469 315.421875 784.222656 C 315.902344 783.964844 316.394531 783.730469 316.902344 783.519531 C 317.40625 783.3125 317.917969 783.128906 318.441406 782.96875 C 318.964844 782.8125 319.492188 782.679688 320.027344 782.574219 C 320.5625 782.464844 321.105469 782.386719 321.648438 782.332031 C 322.191406 782.277344 322.734375 782.25 323.28125 782.25 C 323.828125 782.25 324.371094 782.277344 324.914062 782.332031 C 325.460938 782.386719 326 782.464844 326.535156 782.574219 C 327.070312 782.679688 327.597656 782.8125 328.121094 782.96875 C 328.644531 783.128906 329.15625 783.3125 329.664062 783.523438 C 330.167969 783.730469 330.660156 783.964844 331.140625 784.222656 C 331.621094 784.480469 332.089844 784.757812 332.542969 785.0625 C 333 785.367188 333.4375 785.691406 333.859375 786.039062 C 334.28125 786.382812 334.683594 786.75 335.070312 787.136719 C 335.457031 787.523438 335.824219 787.929688 336.171875 788.351562 C 336.515625 788.773438 336.839844 789.210938 337.144531 789.664062 C 337.449219 790.117188 337.730469 790.585938 337.988281 791.070312 C 338.242188 791.550781 338.476562 792.042969 338.6875 792.546875 C 338.894531 793.054688 339.078125 793.566406 339.238281 794.089844 C 339.394531 794.613281 339.527344 795.140625 339.636719 795.675781 C 339.742188 796.214844 339.820312 796.753906 339.875 797.296875 C 339.929688 797.839844 339.957031 798.386719 339.957031 798.929688 Z M 339.957031 798.929688 " fill-opacity="1" fill-rule="nonzero"/><path fill="#3f3d56" d="M 426.5 688.738281 L 510.671875 603.867188 L 550.410156 603.867188 L 550.410156 602.535156 L 510.117188 602.535156 L 509.921875 602.730469 L 425.550781 687.800781 Z M 426.5 688.738281 " fill-opacity="1" fill-rule="nonzero"/><path fill="#ec462f" d="M 598.949219 569.023438 L 696.472656 569.023438 L 696.472656 577.71875 L 598.949219 577.71875 Z M 598.949219 569.023438 " fill-opacity="1" fill-rule="nonzero"/><path fill="#3f3d56" d="M 587.0625 583.214844 L 566.417969 583.214844 L 566.417969 562.5625 L 587.0625 562.5625 Z M 567.753906 581.878906 L 585.730469 581.878906 L 585.730469 563.894531 L 567.753906 563.894531 Z M 567.753906 581.878906 " fill-opacity="1" fill-rule="nonzero"/><path fill="#ec462f" d="M 598.949219 598.003906 L 696.472656 598.003906 L 696.472656 606.695312 L 598.949219 606.695312 Z M 598.949219 598.003906 " fill-opacity="1" fill-rule="nonzero"/><path fill="#3f3d56" d="M 587.0625 612.191406 L 566.417969 612.191406 L 566.417969 591.539062 L 587.0625 591.539062 Z M 567.753906 610.859375 L 585.730469 610.859375 L 585.730469 592.875 L 567.753906 592.875 Z M 567.753906 610.859375 " fill-opacity="1" fill-rule="nonzero"/><path fill="#ec462f" d="M 598.949219 626.980469 L 696.472656 626.980469 L 696.472656 635.675781 L 598.949219 635.675781 Z M 598.949219 626.980469 " fill-opacity="1" fill-rule="nonzero"/><path fill="#3f3d56" d="M 587.0625 641.171875 L 566.417969 641.171875 L 566.417969 620.519531 L 587.0625 620.519531 Z M 567.753906 639.835938 L 585.730469 639.835938 L 585.730469 621.851562 L 567.753906 621.851562 Z M 567.753906 639.835938 " fill-opacity="1" fill-rule="nonzero"/></svg>